<svg
  width="40"
  height="40"
  viewBox="0 0 40 40"
  fill="none"
  xmlns="http://www.w3.org/2000/svg"
>
  <path
    d="M26.5216 20.4896H1.30435C0.584347 20.4896 0 19.9052 0 19.1852C0 18.4652 0.584347 17.8809 1.30435 17.8809H26.5216C27.2416 17.8809 27.826 18.4652 27.826 19.1852C27.826 19.9052 27.2416 20.4896 26.5216 20.4896Z"
    fill="url(#paint0_linear_48_6948)"
  />
  <path
    d="M19.5658 27.4456C19.2317 27.4456 18.898 27.3189 18.6439 27.0632C18.1343 26.5537 18.1343 25.7276 18.6439 25.2178L24.6787 19.1832L18.6439 13.1484C18.1343 12.6389 18.1343 11.8125 18.6439 11.303C19.1537 10.7935 19.9797 10.7935 20.4893 11.303L27.4457 18.2598C27.9552 18.7693 27.9552 19.5953 27.4457 20.1048L20.4893 27.0613C20.3685 27.1834 20.2247 27.2802 20.0661 27.3462C19.9076 27.4122 19.7375 27.446 19.5658 27.4456Z"
    fill="url(#paint1_linear_48_6948)"
  />
  <path
    d="M20.869 38.3157C12.954 38.3157 5.96639 33.5541 3.06381 26.1834C2.79951 25.5155 3.12968 24.7574 3.79938 24.493C4.4672 24.2322 5.22731 24.5574 5.4916 25.2305C7.99774 31.594 14.0343 35.7071 20.869 35.7071C29.9784 35.7071 37.3908 28.2946 37.3908 19.1852C37.3908 10.0758 29.9784 2.66338 20.869 2.66338C14.0342 2.66338 7.99774 6.77639 5.4916 13.1399C5.22535 13.8131 4.4672 14.1382 3.79938 13.8774C3.12968 13.613 2.79951 12.8549 3.06381 12.1871C5.96639 4.81637 12.954 0.0546875 20.869 0.0546875C31.4168 0.0546875 39.9995 8.63737 39.9995 19.1852C39.9995 29.7331 31.4168 38.3157 20.869 38.3157Z"
    fill="url(#paint2_linear_48_6948)"
  />
  <defs>
    <linearGradient
      id="paint0_linear_48_6948"
      x1="35.4573"
      y1="19.1852"
      x2="5.9673"
      y2="5.79818"
      gradientUnits="userSpaceOnUse"
    >
      <stop stop-color="#107BAB" />
      <stop offset="0.5" stop-color="#544DDD" />
      <stop offset="1" stop-color="#201D6B" />
    </linearGradient>
    <linearGradient
      id="paint1_linear_48_6948"
      x1="30.4513"
      y1="19.1833"
      x2="18.2314"
      y2="18.8822"
      gradientUnits="userSpaceOnUse"
    >
      <stop stop-color="#107BAB" />
      <stop offset="0.5" stop-color="#544DDD" />
      <stop offset="1" stop-color="#201D6B" />
    </linearGradient>
    <linearGradient
      id="paint2_linear_48_6948"
      x1="50.1542"
      y1="19.1852"
      x2="2.90675"
      y2="17.2393"
      gradientUnits="userSpaceOnUse"
    >
      <stop stop-color="#107BAB" />
      <stop offset="0.5" stop-color="#544DDD" />
      <stop offset="1" stop-color="#201D6B" />
    </linearGradient>
  </defs>
</svg>