<svg width="46" height="46" viewBox="0 0 46 46" fill="none" xmlns="http://www.w3.org/2000/svg">
<path d="M39.7806 28.1083L33.141 32.0329C33.0679 31.1962 32.6841 30.4172 32.0653 29.8493C31.4465 29.2815 30.6374 28.966 29.7976 28.9649H22.0551L19.2315 26.8328C18.4139 26.2186 17.4193 25.8856 16.3966 25.8838H10.4938C10.291 25.3837 9.94383 24.9554 9.49651 24.6536C9.04919 24.3519 8.52207 24.1902 7.98246 24.1895H3.30699C2.5878 24.1905 1.89836 24.4767 1.3899 24.9853C0.881441 25.4939 0.595475 26.1835 0.594727 26.9027V37.4083C0.595475 38.1275 0.881441 38.8171 1.3899 39.3257C1.89836 39.8343 2.5878 40.1205 3.30699 40.1215H7.98246C8.52207 40.1207 9.04919 39.9591 9.49651 39.6573C9.94383 39.3555 10.291 38.9273 10.4938 38.4272H15.5344L18.9145 42.2036C19.7347 43.1192 20.739 43.8512 21.8618 44.3516C22.9846 44.8521 24.2004 45.1096 25.4296 45.1074C27.1838 45.1093 28.8974 44.5797 30.3447 43.5885L43.6655 34.4649C44.2002 34.1303 44.6406 33.6648 44.9452 33.1124C45.2498 32.56 45.4084 31.9391 45.406 31.3083C45.406 30.4753 45.1343 29.6857 44.6202 29.0196C44.0604 28.3078 43.2614 27.8231 42.3715 27.6555C41.4815 27.4879 40.5609 27.6488 39.7806 28.1083ZM7.98152 38.7064H3.30699C2.96295 38.7059 2.63316 38.569 2.38997 38.3256C2.14679 38.0823 2.01007 37.7524 2.00982 37.4083V26.9027C2.00982 26.1866 2.5919 25.6045 3.30699 25.6045H7.98246C8.68907 25.6045 9.26265 26.1725 9.27775 26.8753V37.4357C9.2706 37.7747 9.13107 38.0975 8.88901 38.335C8.64695 38.5724 8.32157 38.7058 7.98246 38.7064H7.98152ZM42.8881 33.2819L29.5438 42.4196C26.5249 44.4895 22.4089 43.9895 19.9683 41.2593L16.3768 37.2479C16.3105 37.1737 16.2293 37.1142 16.1384 37.0736C16.0475 37.0329 15.949 37.012 15.8494 37.0121H10.6947V27.2989H16.3966C17.1079 27.2989 17.8117 27.5347 18.3796 27.963L21.3919 30.2366C21.5145 30.33 21.6636 30.38 21.8183 30.38H29.7976C30.1814 30.3804 30.5566 30.4946 30.8757 30.7079C31.1948 30.9213 31.4436 31.2245 31.5906 31.5791C31.7376 31.9337 31.7764 32.3239 31.7019 32.7005C31.6274 33.0771 31.443 33.4232 31.1721 33.6951C30.8127 34.0546 30.3117 34.2612 29.7976 34.2612H21.7721C21.5844 34.2612 21.4045 34.3357 21.2718 34.4684C21.1391 34.6011 21.0645 34.781 21.0645 34.9687C21.0645 35.1564 21.1391 35.3363 21.2718 35.469C21.4045 35.6017 21.5844 35.6762 21.7721 35.6762H29.7976C30.6844 35.6762 31.5504 35.3187 32.173 34.6951C32.4004 34.4678 32.5976 34.2017 32.7579 33.9027L40.5004 29.3262C40.9841 29.0408 41.555 28.9405 42.1071 29.0441C42.6592 29.1477 43.1549 29.4481 43.5023 29.8895C43.7023 30.1461 43.8458 30.442 43.9237 30.7579C44.0015 31.0738 44.0118 31.4026 43.954 31.7227C43.8961 32.0429 43.7713 32.3473 43.5878 32.6159C43.4043 32.8846 43.1653 33.1115 42.8881 33.2819Z" fill="url(#paint0_linear_599_4291)"/>
<path d="M5.63528 31.7191C4.30981 31.7191 3.23245 32.805 3.23245 34.1408C3.2332 34.7779 3.4866 35.3886 3.93705 35.8391C4.38751 36.2895 4.99824 36.5429 5.63528 36.5437C6.97113 36.5437 8.05792 35.4654 8.05792 34.1408C8.05717 33.4986 7.80166 32.883 7.34746 32.4289C6.89327 31.9749 6.27749 31.7196 5.63528 31.7191ZM5.63528 35.1286C5.4378 35.1269 5.24527 35.0667 5.08203 34.9555C4.9188 34.8443 4.79221 34.6873 4.71829 34.5041C4.64436 34.321 4.62642 34.1201 4.66673 33.9267C4.70705 33.7334 4.8038 33.5564 4.94476 33.4181C5.08572 33.2798 5.26454 33.1864 5.45859 33.1497C5.65265 33.1131 5.85321 33.1348 6.03491 33.2122C6.2166 33.2896 6.37126 33.4191 6.4793 33.5844C6.58735 33.7497 6.64393 33.9434 6.64189 34.1408C6.64189 34.6852 6.19094 35.1286 5.63528 35.1286ZM42.1966 16.421C42.1966 15.3927 41.5211 14.5295 40.5938 14.2248V8.50122C40.5924 8.41585 40.5755 8.33144 40.5438 8.25216C40.5343 8.22858 40.5221 8.20782 40.5108 8.18518C40.4842 8.13209 40.4509 8.08263 40.4117 8.03801C40.3947 8.01914 40.3787 8.00028 40.3598 7.98235C40.3116 7.93925 40.2576 7.90305 40.1994 7.8748C40.1825 7.86537 40.1683 7.85405 40.1504 7.8465C40.1438 7.84462 40.14 7.84084 40.1343 7.83801L21.8985 1.03707C21.3694 0.84181 20.788 0.84181 20.2589 1.03707L4.27585 6.99933C3.96839 7.11168 3.70314 7.31626 3.51638 7.58509C3.32961 7.85392 3.23045 8.17388 3.23245 8.50122C3.23245 9.17858 3.64189 9.7682 4.2749 10.0041L7.31641 11.138V19.5031C7.31641 20.6239 8.0617 21.6144 9.12679 21.9107C13.0928 23.0144 17.0862 23.5663 21.0796 23.5663C25.073 23.5663 29.0674 23.0144 33.0325 21.9107C33.5553 21.7612 34.015 21.4452 34.3419 21.0107C34.6688 20.5762 34.845 20.0469 34.8438 19.5031V11.138L39.1787 9.52103V14.2163C38.7081 14.3629 38.2966 14.6558 38.0038 15.0522C37.7109 15.4487 37.5521 15.9282 37.5504 16.421C37.5504 17.2607 38.0023 17.9908 38.6711 18.3993C38.1872 19.0946 37.6362 20.1408 37.6362 21.3503C37.6362 23.4541 39.3089 25.1031 39.3806 25.172C39.5121 25.3011 39.6891 25.3734 39.8735 25.3734C40.0578 25.3734 40.2348 25.3011 40.3664 25.172C40.4372 25.1031 42.1098 23.4541 42.1098 21.3512C42.1098 20.1408 41.5589 19.0946 41.0749 18.3984C41.416 18.193 41.6985 17.9031 41.8949 17.5567C42.0914 17.2104 42.1953 16.8192 42.1966 16.421ZM4.64755 8.50122C4.64755 8.41631 4.68906 8.35594 4.77019 8.32669L20.7523 2.36443C20.9631 2.28566 21.1952 2.28566 21.406 2.36443L35.9645 7.79367H21.0796C20.892 7.79367 20.712 7.86822 20.5793 8.00091C20.4466 8.1336 20.3721 8.31357 20.3721 8.50122C20.3721 8.68887 20.4466 8.86884 20.5793 9.00153C20.712 9.13422 20.892 9.20877 21.0796 9.20877H35.9655L21.4051 14.6408C21.1952 14.7191 20.9641 14.7191 20.7542 14.6408L4.76924 8.67858C4.73205 8.66718 4.69979 8.64356 4.67771 8.61154C4.65562 8.57952 4.64499 8.54098 4.64755 8.50216V8.50122ZM33.4287 19.5031C33.4287 19.9908 33.1098 20.4201 32.6532 20.5474C24.974 22.6852 17.1853 22.6852 9.50604 20.5474C9.28089 20.4813 9.08344 20.3436 8.94366 20.1551C8.80388 19.9667 8.7294 19.7377 8.73151 19.5031V11.6663L20.2589 15.9644C20.7879 16.1635 21.3711 16.1638 21.9004 15.9654L33.4287 11.6663V19.5031ZM39.873 15.5125C40.114 15.5124 40.3451 15.608 40.5156 15.7783C40.686 15.9486 40.7819 16.1796 40.782 16.4206C40.7821 16.6615 40.6865 16.8926 40.5162 17.0631C40.3459 17.2336 40.1149 17.3294 39.874 17.3295H39.8721C39.6363 17.3218 39.4128 17.2227 39.2488 17.0531C39.0848 16.8836 38.9932 16.6569 38.9933 16.421C38.9935 16.1852 39.0853 15.9586 39.2495 15.7892C39.4137 15.6198 39.6373 15.521 39.873 15.5135V15.5125ZM39.873 23.5607C39.4994 23.039 39.0523 22.2305 39.0523 21.3503C39.0523 20.4729 39.4994 19.6635 39.873 19.1427C40.2457 19.6644 40.6938 20.4767 40.6938 21.3503C40.6938 22.2295 40.2466 23.039 39.873 23.5607Z" fill="url(#paint1_linear_599_4291)"/>
<defs>
<linearGradient id="paint0_linear_599_4291" x1="8.05923" y1="26.8642" x2="54.1075" y2="31.2958" gradientUnits="userSpaceOnUse">
<stop stop-color="#0C3E54"/>
<stop offset="1" stop-color="#1B89BA"/>
</linearGradient>
<linearGradient id="paint1_linear_599_4291" x1="9.72292" y1="5.4496" x2="50.0363" y2="7.42881" gradientUnits="userSpaceOnUse">
<stop stop-color="#0C3E54"/>
<stop offset="1" stop-color="#1B89BA"/>
</linearGradient>
</defs>
</svg>
