<svg width="48" height="48" viewBox="0 0 48 48" fill="none" xmlns="http://www.w3.org/2000/svg">
<path d="M41.7242 11.1771L42.9894 10.2603C42.3715 9.40808 41.6974 8.59817 40.9715 7.83594L39.8402 8.91387C40.518 9.62544 41.1474 10.3815 41.7242 11.1771ZM6.2749 36.8227L5.00977 37.7396C5.6277 38.5917 6.30186 39.4016 7.02773 40.1639L8.15898 39.086C7.4813 38.3743 6.85187 37.6182 6.2749 36.8227ZM46.5338 17.5348L45.0318 17.965C46.6087 23.4791 45.9599 29.3917 43.2248 34.4327C40.4898 39.4736 35.8866 43.2407 30.4043 44.9246L28.478 42.9985C28.1454 42.6649 27.9315 42.2313 27.8689 41.7643C27.8064 41.2974 27.8988 40.8228 28.1318 40.4134L28.8636 39.1331C29.3111 38.3475 29.4568 37.4256 29.2736 36.5402C29.0903 35.6549 28.5906 34.8666 27.8681 34.3231L26.889 33.5888C26.6188 33.3861 26.4001 33.1226 26.2508 32.8196C26.1015 32.5167 26.0258 32.1828 26.0297 31.845C26.0337 31.5073 26.1172 31.1752 26.2735 30.8758C26.4298 30.5764 26.6545 30.3181 26.9294 30.1218L27.518 29.7013C28.1264 29.2702 28.59 28.665 28.8476 27.9653C29.1053 27.2656 29.1449 26.5043 28.9613 25.7816L28.8926 25.5067C28.809 25.1725 28.8071 24.823 28.8869 24.4878C28.9668 24.1526 29.1261 23.8415 29.3514 23.5808C29.5768 23.3201 29.8615 23.1175 30.1816 22.9899C30.5017 22.8624 30.8478 22.8137 31.1906 22.8479L32.1291 22.9417C33.0009 23.0285 33.8754 22.8044 34.598 22.3091L33.7137 21.021C33.2953 21.3076 32.7892 21.4373 32.2846 21.387L31.3461 21.2932C30.7539 21.2339 30.1561 21.318 29.6032 21.5383C29.0503 21.7587 28.5585 22.1087 28.1693 22.559C27.7801 23.0093 27.5049 23.5466 27.3669 24.1256C27.229 24.7046 27.2323 25.3082 27.3767 25.8856L27.4454 26.1605C27.5517 26.5789 27.5288 27.0197 27.3796 27.4248C27.2305 27.8298 26.9621 28.1802 26.6099 28.4298L26.0212 28.8503C25.5465 29.1894 25.1584 29.6356 24.8884 30.1528C24.6184 30.67 24.4742 31.2435 24.4674 31.8268C24.4606 32.4102 24.5914 32.9869 24.8493 33.5103C25.1071 34.0336 25.4848 34.4887 25.9515 34.8388L26.9307 35.5731C27.349 35.8878 27.6383 36.3441 27.7443 36.8567C27.8504 37.3693 27.766 37.903 27.5068 38.3578L26.7752 39.6381C26.3727 40.3453 26.2132 41.165 26.3212 41.9715C26.4292 42.7781 26.7987 43.5269 27.3731 44.1033L28.6493 45.3795C27.368 45.6562 26.0645 45.8177 24.7544 45.8621L24.8072 47.4237C28.3661 47.2982 31.8497 46.3641 34.9938 44.6921C38.138 43.0201 40.8602 40.6542 42.954 37.7737C45.0478 34.8932 46.4584 31.5738 47.0786 28.0672C47.6988 24.5605 47.5125 20.9587 46.5338 17.5348Z" fill="url(#paint0_linear_599_4296)"/>
<path d="M25.0453 2.53716C25.3296 4.51618 26.2936 6.33464 27.7719 7.68071L28.1406 8.01596L24.9229 17.6696C24.8634 17.848 24.8703 18.0418 24.9422 18.2155C25.0141 18.3893 25.1463 18.5312 25.3145 18.6154L27.5243 19.7203C27.6925 19.8044 27.8854 19.8251 28.0676 19.7784C28.2498 19.7317 28.409 19.6208 28.516 19.4662L33.2362 12.6482L36.1698 15.3151C36.5949 15.7015 37.036 16.0693 37.4933 16.4186L35.9714 20.9841C35.9255 21.1218 35.9189 21.2695 35.9522 21.4107C35.9856 21.5519 36.0576 21.681 36.1602 21.7836L37.265 22.8884C37.3375 22.961 37.4236 23.0185 37.5184 23.0578C37.6132 23.097 37.7148 23.1172 37.8174 23.1172C37.8358 23.1172 37.8543 23.1166 37.8729 23.1153C37.9845 23.1073 38.0932 23.0755 38.1914 23.0219C38.2897 22.9684 38.3753 22.8943 38.4425 22.8047L41.4132 18.8438L42.9623 19.7044C43.1107 19.7869 43.282 19.8187 43.4501 19.7952C43.6182 19.7716 43.7741 19.694 43.8942 19.5739C44.0142 19.4538 44.0919 19.298 44.1154 19.1298C44.139 18.9617 44.1071 18.7904 44.0246 18.642L43.164 17.0929L47.1249 14.1222C47.2145 14.0551 47.2886 13.9695 47.3421 13.8712C47.3957 13.7729 47.4276 13.6643 47.4355 13.5526C47.4435 13.441 47.4273 13.3289 47.3882 13.224C47.3491 13.1192 47.2878 13.0239 47.2087 12.9448L46.1039 11.84C46.0013 11.7374 45.8722 11.6654 45.731 11.6321C45.5898 11.5988 45.4421 11.6054 45.3044 11.6512L40.7389 13.173C40.3898 12.7165 40.022 12.2753 39.6354 11.8496L36.9684 8.91596L43.7863 4.19585C43.941 4.08881 44.0518 3.92959 44.0985 3.74742C44.1451 3.56525 44.1245 3.37235 44.0404 3.20415L42.9356 0.994382C42.8515 0.826139 42.7096 0.693883 42.5358 0.621922C42.362 0.549961 42.1682 0.543129 41.9898 0.602682L32.3362 3.82046L32.001 3.45171C30.6549 1.97337 28.8364 1.00942 26.8573 0.725143L25.7743 0.570456C25.6543 0.553323 25.5319 0.564372 25.4169 0.602728C25.3018 0.641084 25.1973 0.705694 25.1115 0.791442C25.0258 0.877191 24.9612 0.981723 24.9228 1.09676C24.8845 1.2118 24.8734 1.33419 24.8905 1.45424L25.0453 2.53716ZM26.6363 2.27182C28.2556 2.50446 29.7434 3.2932 30.8447 4.50278L38.4792 12.9005C39.4501 13.9689 40.2945 15.1456 40.9958 16.4074L41.3308 17.0107L40.7276 16.6755C39.4659 15.9742 38.2891 15.1298 37.2208 14.1589L28.8231 6.52446C27.6135 5.42316 26.8247 3.9353 26.5922 2.31606L26.5848 2.2644L26.6363 2.27182ZM22.9547 45.4629C22.6704 43.4839 21.7065 41.6654 20.2281 40.3194L19.8594 39.9841L23.0772 30.3305C23.1366 30.1521 23.1298 29.9583 23.0578 29.7845C22.9859 29.6108 22.8537 29.4688 22.6856 29.3847L20.4757 28.2798C20.3075 28.1957 20.1146 28.175 19.9324 28.2217C19.7502 28.2684 19.591 28.3792 19.484 28.5339L14.7638 35.3519L11.8302 32.685C11.4051 32.2986 10.964 31.9308 10.5068 31.5815L12.0286 27.016C12.0745 26.8783 12.0812 26.7306 12.0478 26.5894C12.0145 26.4482 11.9425 26.319 11.8399 26.2165L10.7351 25.1117C10.6559 25.0325 10.5607 24.9713 10.4558 24.9321C10.3509 24.893 10.2389 24.8768 10.1272 24.8848C10.0155 24.8927 9.90689 24.9245 9.8086 24.9781C9.71031 25.0317 9.62469 25.1058 9.55754 25.1954L6.58693 29.1563L5.03781 28.2957C4.8894 28.2132 4.71816 28.1813 4.55003 28.2049C4.38189 28.2284 4.226 28.3061 4.10596 28.4262C3.98591 28.5462 3.90824 28.7021 3.88471 28.8703C3.86117 29.0384 3.89304 29.2096 3.9755 29.3581L4.79035 30.8248L4.55695 31.1165L0.875016 33.878C0.785468 33.9451 0.711396 34.0308 0.657817 34.129C0.604238 34.2273 0.572402 34.3359 0.564466 34.4476C0.55653 34.5592 0.572679 34.6713 0.611819 34.7762C0.650959 34.881 0.712176 34.9763 0.791325 35.0554L1.89611 36.1603C1.99871 36.2629 2.12785 36.3349 2.26906 36.3682C2.41028 36.4015 2.55798 36.3949 2.69562 36.349L7.26115 34.8272C7.61024 35.2837 7.97808 35.7248 8.36466 36.1506L11.0317 39.0842L4.21369 43.8043C4.05907 43.9114 3.94825 44.0706 3.90157 44.2528C3.85489 44.4349 3.87549 44.6278 3.95959 44.796L5.06447 47.0057C5.14847 47.174 5.29042 47.3063 5.46419 47.3783C5.63797 47.4502 5.83188 47.457 6.01027 47.3974L15.6638 44.1796L15.999 44.5484C17.3451 46.0267 19.1636 46.9907 21.1427 47.2749L22.2257 47.4296C22.3457 47.4468 22.4681 47.4357 22.5832 47.3974C22.6982 47.359 22.8028 47.2944 22.8885 47.2086C22.9743 47.1229 23.0389 47.0184 23.0772 46.9033C23.1156 46.7883 23.1266 46.6659 23.1095 46.5458L22.9547 45.4629ZM21.3637 45.7283C19.7445 45.4956 18.2566 44.7069 17.1553 43.4973L9.52082 35.0996C8.54993 34.0312 7.70549 32.8545 7.00422 31.5927L6.66925 30.9894L7.27238 31.3246C8.53417 32.0258 9.71089 32.8703 10.7792 33.8412L19.177 41.4755C20.3866 42.5768 21.1753 44.0647 21.4078 45.6839L21.4153 45.7356L21.3637 45.7283ZM35.4856 27.125C34.7937 27.125 34.1158 27.3204 33.5301 27.6888C32.9444 28.0571 32.4747 28.5834 32.1749 29.207C31.8752 29.8306 31.7577 30.5262 31.836 31.2136C31.9143 31.9011 32.1852 32.5525 32.6174 33.0927L35.1086 36.2069C35.1818 36.2984 35.2746 36.3723 35.3802 36.423C35.4859 36.4738 35.6015 36.5002 35.7187 36.5002C35.8359 36.5002 35.9516 36.4738 36.0572 36.423C36.1628 36.3723 36.2556 36.2984 36.3288 36.2069L38.82 33.0927C39.2522 32.5525 39.5231 31.9011 39.6013 31.2137C39.6796 30.5262 39.5621 29.8307 39.2624 29.2071C38.9627 28.5835 38.493 28.0572 37.9073 27.6889C37.3216 27.3205 36.6438 27.1251 35.952 27.125H35.4856ZM38.0625 30.7981C38.062 31.2772 37.8989 31.742 37.6 32.1165L35.7188 34.4682L33.8375 32.1166C33.5891 31.8062 33.4335 31.4319 33.3885 31.0369C33.3435 30.6419 33.411 30.2422 33.5832 29.8839C33.7555 29.5255 34.0254 29.2231 34.3619 29.0115C34.6985 28.7998 35.088 28.6875 35.4856 28.6875H35.952C36.5115 28.6882 37.048 28.9108 37.4436 29.3064C37.8393 29.7021 38.0619 30.2385 38.0625 30.7981Z" fill="url(#paint1_linear_599_4296)"/>
<path d="M34.9375 30.25H36.5V31.8125H34.9375V30.25ZM20.0938 17.75H21.6563V19.3125H20.0938V17.75ZM21.6563 21.6562H23.2188V23.2188H21.6563V21.6562ZM16.1875 25.5625H17.75V27.125H16.1875V25.5625ZM13.8438 28.6875H15.4063V30.25H13.8438V28.6875ZM23.2188 38.0625H24.7813V39.625H23.2188V38.0625ZM2.96779 30.0349C2.40721 28.0723 2.12355 26.0411 2.12502 24C2.12502 23.9603 2.12599 23.9207 2.12629 23.881C2.74083 24.623 3.60937 25.11 4.56302 25.2471C5.51667 25.3843 6.48727 25.162 7.28605 24.6232L8.53928 23.7878C9.04419 23.4498 9.66104 23.3222 10.2586 23.432L13.3445 23.9931C13.9535 24.1038 14.5801 24.0682 15.1726 23.8893C15.7651 23.7103 16.3067 23.3931 16.7526 22.9639C17.1984 22.5346 17.536 22.0055 17.7373 21.4202C17.9386 20.8349 17.9979 20.2101 17.9104 19.5974L17.8465 19.1511C17.7955 18.7909 17.8285 18.4237 17.9432 18.0784L18.8631 15.3188C18.9597 15.0265 19.1133 14.7561 19.315 14.5235C19.5168 14.2909 19.7627 14.1006 20.0385 13.9637L20.7731 13.5963C21.6988 13.1321 22.4027 12.3196 22.7302 11.3371C23.0577 10.3547 22.9821 9.2824 22.52 8.35557L21.4201 6.15576C21.2722 5.8597 21.1887 5.53569 21.1749 5.20502C21.1612 4.87436 21.2175 4.54453 21.3403 4.23721L22.1538 2.20352C22.5159 2.17295 22.8796 2.1502 23.2452 2.13779L23.1924 0.576172C19.6335 0.701684 16.15 1.63585 13.0058 3.30784C9.86166 4.97983 7.13947 7.34575 5.04563 10.2262C2.95179 13.1067 1.54128 16.4261 0.921034 19.9327C0.300791 23.4394 0.487101 27.0412 1.46584 30.4651L2.96779 30.0349ZM11.2669 9.9375H11.7333C12.4252 9.93751 13.103 10.1329 13.6887 10.5013C14.2744 10.8696 14.7442 11.3959 15.0439 12.0195C15.3436 12.6431 15.4611 13.3387 15.3828 14.0262C15.3046 14.7136 15.0337 15.365 14.6015 15.9053L12.1103 19.0193C12.0371 19.1108 11.9442 19.1847 11.8386 19.2355C11.733 19.2863 11.6173 19.3126 11.5002 19.3126C11.383 19.3126 11.2673 19.2863 11.1617 19.2355C11.0561 19.1847 10.9632 19.1108 10.8901 19.0193L8.39885 15.9051C7.96664 15.3648 7.69582 14.7135 7.61755 14.0261C7.53928 13.3386 7.65675 12.6431 7.95644 12.0195C8.25613 11.3959 8.72585 10.8697 9.31151 10.5013C9.89717 10.133 10.5751 9.93754 11.2669 9.9375Z" fill="url(#paint2_linear_599_4296)"/>
<path d="M11.5 17.2807L13.3812 14.9291C13.6296 14.6187 13.7853 14.2444 13.8303 13.8494C13.8752 13.4543 13.8077 13.0546 13.6355 12.6963C13.4633 12.338 13.1934 12.0356 12.8568 11.8239C12.5203 11.6123 12.1308 11.5 11.7332 11.5H11.2668C10.8692 11.5 10.4798 11.6123 10.1432 11.8239C9.80669 12.0356 9.53677 12.338 9.36455 12.6963C9.19234 13.0546 9.12483 13.4543 9.1698 13.8493C9.21477 14.2443 9.37039 14.6186 9.61875 14.929L11.5 17.2807ZM10.7187 13.0625H12.2812V14.625H10.7187V13.0625Z" fill="url(#paint3_linear_599_4296)"/>
<defs>
<linearGradient id="paint0_linear_599_4296" x1="12.0771" y1="12.8981" x2="55.9776" y2="15.0117" gradientUnits="userSpaceOnUse">
<stop stop-color="#0C3E54"/>
<stop offset="1" stop-color="#1B89BA"/>
</linearGradient>
<linearGradient id="paint1_linear_599_4296" x1="8.37075" y1="6.55645" x2="56.8878" y2="8.736" gradientUnits="userSpaceOnUse">
<stop stop-color="#0C3E54"/>
<stop offset="1" stop-color="#1B89BA"/>
</linearGradient>
<linearGradient id="paint2_linear_599_4296" x1="6.54883" y1="5.56937" x2="43.7567" y2="7.10769" gradientUnits="userSpaceOnUse">
<stop stop-color="#0C3E54"/>
<stop offset="1" stop-color="#1B89BA"/>
</linearGradient>
<linearGradient id="paint3_linear_599_4296" x1="9.93709" y1="12.2392" x2="14.7922" y2="12.416" gradientUnits="userSpaceOnUse">
<stop stop-color="#0C3E54"/>
<stop offset="1" stop-color="#1B89BA"/>
</linearGradient>
</defs>
</svg>
