<svg width="50" height="50" viewBox="0 0 50 50" fill="none" xmlns="http://www.w3.org/2000/svg">
<path fill-rule="evenodd" clip-rule="evenodd" d="M0.686523 31.6108V6.85839C0.686523 4.8081 2.35868 3.13604 4.40888 3.13604H5.18927V2.20427C5.18927 1.3678 5.87152 0.685547 6.70799 0.685547H8.16447C9.00103 0.685547 9.68329 1.3678 9.68329 2.20427V3.13604H13.3561V2.20427C13.3561 1.3678 14.0384 0.685547 14.8749 0.685547H16.3313C17.1678 0.685547 17.8501 1.3678 17.8501 2.20427V3.13604H21.5229V2.20427C21.5229 1.3678 22.2052 0.685547 23.0416 0.685547H24.4981C25.3346 0.685547 26.017 1.3678 26.017 2.20427V3.13604H29.6898V2.20427C29.6898 1.3678 30.3719 0.685547 31.2085 0.685547H32.665C33.5014 0.685547 34.1837 1.3678 34.1837 2.20427V3.13604H34.9641C37.0143 3.13604 38.6864 4.8081 38.6864 6.85839L38.6865 10.3322L38.6864 21.9488C39.9432 22.0671 41.1255 22.7719 41.8047 23.9483C42.8118 25.6927 42.3679 27.8767 40.8475 29.1026L43.9488 34.4743C44.4099 35.2728 44.3987 36.1886 43.9209 36.9747C43.4438 37.7596 42.6446 38.1912 41.7231 38.1551L41.7213 38.155C41.3345 38.14 40.9459 38.1246 40.5563 38.1106C36.513 37.9718 32.3226 38.0182 28.2712 39.3337L32.8153 47.2042C32.9193 47.3843 32.9474 47.5984 32.8936 47.7993C32.8398 48.0002 32.7083 48.1715 32.5282 48.2755L31.6115 48.8048C29.7967 49.8525 27.4587 49.226 26.4109 47.4112L23.2968 42.0174L22.505 42.4746C19.5096 44.204 15.6457 43.1651 13.9188 40.174C13.0415 38.6545 12.8763 36.9093 13.3188 35.3331H4.40888C2.35868 35.3331 0.686523 33.6609 0.686523 31.6108ZM5.18927 4.70466H4.40888C3.2226 4.70466 2.25515 5.67212 2.25515 6.85839V9.5479H37.1179L37.1178 6.85839C37.1178 5.67212 36.1504 4.70466 34.9641 4.70466H34.1837V5.92515C34.1837 6.76163 33.5014 7.44398 32.665 7.44398H31.2085C30.372 7.44398 29.6898 6.76182 29.6898 5.92515V4.70466H26.017V5.92515C26.017 6.76153 25.3346 7.44398 24.4981 7.44398H23.0416C22.2052 7.44398 21.5229 6.76182 21.5229 5.92515V4.70466H17.8501V5.92515C17.8501 6.76163 17.1678 7.44398 16.3313 7.44398H14.8749C14.0384 7.44398 13.3561 6.76182 13.3561 5.92515V4.70466H9.68329V5.92515C9.68329 6.76163 9.00094 7.44398 8.16447 7.44398H6.70799C5.87152 7.44398 5.18927 6.76182 5.18927 5.92515V4.70466ZM37.1178 22.1114L37.1179 11.1165H2.25515V31.6108C2.25515 32.797 3.2226 33.7645 4.40888 33.7645H13.9978C14.5424 32.8628 15.3068 32.1139 16.2195 31.5879L21.1553 28.7381C24.1818 26.0245 26.3849 22.2355 28.3374 18.8459C28.344 18.8329 28.3509 18.82 28.3583 18.8071C28.5307 18.5074 28.7038 18.2081 28.8776 17.9092C29.0906 17.5403 29.3056 17.1726 29.5224 16.8059C29.9833 16.03 30.752 15.5953 31.6498 15.6015C32.5473 15.6079 33.3132 16.0528 33.761 16.8285L36.8624 22.2003C36.9465 22.1678 37.0317 22.1382 37.1178 22.1114ZM40.0471 27.7163C40.8241 26.9472 41.0185 25.7238 40.4462 24.7326C39.9346 23.8465 38.9558 23.3981 38.0005 23.519C37.8864 23.5334 37.7735 23.5559 37.6626 23.5863L40.0471 27.7163ZM41.7838 36.5876H41.7846C42.1184 36.6007 42.4077 36.4441 42.5804 36.1599C42.7527 35.8765 42.7565 35.5464 42.5904 35.2586L39.1202 29.248L35.871 23.6204L32.4026 17.6128C32.2406 17.3323 31.9632 17.1724 31.6387 17.1702C31.3148 17.1679 31.0383 17.3263 30.8717 17.606L30.8711 17.6069C30.5602 18.1362 30.251 18.6665 29.9437 19.1979L39.9451 36.5208C40.2434 36.5299 40.5411 36.5403 40.8382 36.5512C41.1544 36.5624 41.4696 36.5747 41.7838 36.5876ZM27.4706 37.9471C30.9727 36.7554 34.5776 36.478 38.1174 36.4925L29.0351 20.7613C27.2507 23.8115 25.2261 27.0481 22.6106 29.5294L27.4706 37.9471ZM24.6553 41.2331L27.7694 46.6269C28.3854 47.694 29.7602 48.0623 30.8272 47.4462L31.0646 47.3092L26.8312 39.9768L24.6553 41.2331ZM21.3301 30.4486L17.0038 32.9463C14.7559 34.2442 13.9814 37.1451 15.2773 39.3897C16.5732 41.6343 19.4728 42.4139 21.7206 41.1161L26.0469 38.6184L21.3301 30.4486ZM18.0557 13.9206H21.3173C21.5253 13.9206 21.7248 14.0033 21.8719 14.1504C22.019 14.2975 22.1016 14.4969 22.1016 14.705V17.9665C22.1016 18.1745 22.019 18.374 21.8719 18.5211C21.7248 18.6682 21.5253 18.7508 21.3173 18.7508H18.0557C17.8477 18.7508 17.6482 18.6682 17.5011 18.5211C17.3541 18.374 17.2714 18.1745 17.2714 17.9665V14.705C17.2714 14.4969 17.3541 14.2975 17.5011 14.1504C17.6482 14.0033 17.8477 13.9206 18.0557 13.9206ZM18.8401 15.4893V17.1822H20.533V15.4893H18.8401ZM11.9401 26.1518H15.2016C15.4096 26.1518 15.6091 26.2345 15.7562 26.3815C15.9033 26.5286 15.9859 26.7281 15.9859 26.9361V30.1978C15.9859 30.4058 15.9033 30.6053 15.7562 30.7524C15.6091 30.8995 15.4096 30.9821 15.2016 30.9821H11.9401C11.732 30.9821 11.5325 30.8995 11.3855 30.7524C11.2384 30.6053 11.1557 30.4058 11.1557 30.1978V26.9361C11.1557 26.7281 11.2384 26.5286 11.3855 26.3815C11.5325 26.2345 11.732 26.1518 11.9401 26.1518ZM12.7244 27.7205V29.4135H14.4173V27.7205H12.7244ZM5.82447 26.1518H9.08603C9.29405 26.1518 9.49354 26.2345 9.64063 26.3815C9.78771 26.5286 9.87035 26.7281 9.87035 26.9361V30.1978C9.87035 30.4058 9.78771 30.6053 9.64063 30.7524C9.49354 30.8995 9.29405 30.9821 9.08603 30.9821H5.82447C5.61645 30.9821 5.41696 30.8995 5.26987 30.7524C5.12278 30.6053 5.04015 30.4058 5.04015 30.1978V26.9361C5.04015 26.7281 5.12278 26.5286 5.26987 26.3815C5.41696 26.2345 5.61645 26.1518 5.82447 26.1518ZM6.60878 27.7205V29.4135H8.30172V27.7205H6.60878ZM18.0557 20.0362H21.3173C21.5253 20.0362 21.7248 20.1189 21.8719 20.266C22.019 20.413 22.1016 20.6125 22.1016 20.8205V24.0822C22.1016 24.2902 22.019 24.4897 21.8719 24.6368C21.7248 24.7839 21.5253 24.8665 21.3173 24.8665H18.0557C17.8477 24.8665 17.6482 24.7839 17.5011 24.6368C17.3541 24.4897 17.2714 24.2902 17.2714 24.0822V20.8205C17.2714 20.6125 17.3541 20.413 17.5011 20.266C17.6482 20.1189 17.8477 20.0362 18.0557 20.0362ZM18.8401 21.6049V23.2979H20.533V21.6049H18.8401ZM24.1713 13.9206H27.4329C27.6409 13.9206 27.8404 14.0033 27.9875 14.1504C28.1346 14.2975 28.2172 14.4969 28.2172 14.705V17.9665C28.2172 18.1745 28.1346 18.374 27.9875 18.5211C27.8404 18.6682 27.6409 18.7508 27.4329 18.7508H24.1713C23.9633 18.7508 23.7638 18.6682 23.6167 18.5211C23.4696 18.374 23.387 18.1745 23.387 17.9665V14.705C23.387 14.4969 23.4696 14.2975 23.6167 14.1504C23.7638 14.0033 23.9633 13.9206 24.1713 13.9206ZM24.9556 15.4893V17.1822H26.6486V15.4893H24.9556ZM8.51309 17.0772L9.2379 14.8464C9.32545 14.5772 9.49597 14.3426 9.72503 14.1762C9.95409 14.0098 10.2299 13.9202 10.513 13.9202C10.7962 13.9202 11.072 14.0098 11.3011 14.1762C11.5301 14.3426 11.7006 14.5772 11.7882 14.8464L12.513 17.0772H14.8586C15.1417 17.0773 15.4175 17.1669 15.6466 17.3333C15.8756 17.4998 16.0461 17.7344 16.1335 18.0037C16.221 18.2729 16.221 18.563 16.1336 18.8322C16.0461 19.1015 15.8756 19.3362 15.6466 19.5026L13.749 20.8813L14.4738 23.1121C14.5613 23.3814 14.5613 23.6715 14.4739 23.9408C14.3864 24.2101 14.2159 24.4447 13.9868 24.6112C13.7577 24.7776 13.4819 24.8673 13.1987 24.8672C12.9156 24.8672 12.6397 24.7776 12.4106 24.6111L10.5131 23.2324L8.61545 24.6111C8.38639 24.7776 8.11051 24.8672 7.82737 24.8672C7.54422 24.8673 7.26834 24.7776 7.03927 24.6112C6.81021 24.4447 6.63971 24.2101 6.55223 23.9408C6.46475 23.6715 6.46478 23.3814 6.55231 23.1121L7.27711 20.8813L5.37947 19.5026C5.15032 19.3362 4.97974 19.1016 4.8922 18.8323C4.80465 18.563 4.80462 18.2729 4.89213 18.0035C4.97963 17.7342 5.15017 17.4995 5.37928 17.3331C5.6084 17.1667 5.88433 17.0771 6.1675 17.0772H8.51309ZM6.86897 18.6458L8.33309 19.7097C8.56214 19.8761 8.73262 20.1107 8.82011 20.38C8.90761 20.6493 8.90762 20.9393 8.82015 21.2086L8.26084 22.9298L9.72496 21.866C9.95403 21.6996 10.2299 21.61 10.513 21.61C10.7962 21.61 11.0721 21.6996 11.3011 21.866L12.7653 22.9298L12.2059 21.2086C12.1185 20.9393 12.1185 20.6493 12.206 20.38C12.2935 20.1107 12.464 19.8761 12.693 19.7097L14.1571 18.6458H12.3474C12.0643 18.6458 11.7884 18.5562 11.5594 18.3898C11.3303 18.2234 11.1598 17.9887 11.0723 17.7195L10.5131 15.9983L9.95378 17.7195C9.86628 17.9887 9.69579 18.2234 9.46673 18.3898C9.23767 18.5562 8.96181 18.6458 8.67868 18.6458H6.86897ZM6.7579 2.25417V5.87535H8.11466V2.25417H6.7579ZM31.2584 2.25417V5.87535H32.6151V2.25417H31.2584ZM14.9247 2.25417V5.87535H16.2814V2.25417H14.9247ZM23.0915 2.25417V5.87535H24.4484V2.25417H23.0915ZM40.9083 18.9352C40.8544 19.136 40.7229 19.3073 40.5428 19.4113C40.3627 19.5153 40.1486 19.5435 39.9477 19.4898C39.7468 19.4358 39.5756 19.3043 39.4716 19.1242C39.3676 18.9441 39.3394 18.7301 39.3931 18.5292L40.2078 15.4888C40.3199 15.0706 40.7503 14.8221 41.1684 14.9342C41.5865 15.0462 41.8351 15.4766 41.723 15.8948L40.9083 18.9352ZM45.2834 28.7759C44.8654 28.6635 44.6172 28.2328 44.7297 27.8149C44.7838 27.614 44.9154 27.4429 45.0956 27.3391C45.2759 27.2352 45.49 27.2072 45.6908 27.2611L48.7334 28.0796C49.1514 28.192 49.3995 28.6227 49.287 29.0407C49.1746 29.4588 48.744 29.7068 48.3259 29.5944L45.2834 28.7759ZM45.1324 22.9528C44.7575 23.1693 44.2775 23.0406 44.061 22.6657C43.8446 22.2908 43.9732 21.8107 44.3481 21.5944L47.0791 20.0176C47.2592 19.9137 47.4733 19.8856 47.6742 19.9394C47.8751 19.9932 48.0464 20.1246 48.1504 20.3047C48.2544 20.4848 48.2825 20.6989 48.2287 20.8998C48.1749 21.1007 48.0435 21.2721 47.8634 21.3761L45.1324 22.9528Z" fill="url(#paint0_linear_601_4303)"/>
<defs>
<linearGradient id="paint0_linear_601_4303" x1="8.78671" y1="6.90351" x2="59.1178" y2="9.16458" gradientUnits="userSpaceOnUse">
<stop stop-color="#0C3E54"/>
<stop offset="1" stop-color="#1B89BA"/>
</linearGradient>
</defs>
</svg>
