<svg width="50" height="50" viewBox="0 0 50 38" fill="none" xmlns="http://www.w3.org/2000/svg">
<path d="M49.9453 22.782C49.9115 22.7251 49.8635 22.6778 49.806 22.645C49.7485 22.6121 49.6834 22.5947 49.6172 22.5945H30.6641C30.5941 22.5957 30.5259 22.6159 30.4666 22.6531C30.4074 22.6903 30.3595 22.743 30.3281 22.8055L27.7188 27.8758C27.0078 21.2508 24.1094 17.5555 19.1094 16.8914C19.0154 16.8761 18.9191 16.8976 18.8405 16.9514C18.762 17.0052 18.7072 17.0873 18.6875 17.1805C18.4896 18.0651 18.0359 18.8721 17.3828 19.5008C16.8516 18.9461 16.8984 17.743 16.9844 17.1727C17.5507 16.695 18.0056 16.0992 18.3174 15.4271C18.6291 14.755 18.7901 14.0229 18.7891 13.282V9.28203C21.0469 7.32891 21.0312 3.85234 18.7109 0.750782C18.6484 0.664844 18.5625 0.617969 18.4609 0.602344C18.3594 0.586719 18.25 0.610156 18.1719 0.672656L17.0547 1.53203C16.7969 1.72734 16.4609 1.82109 16.125 1.78984C12.3125 1.49297 9.39844 2.46172 7.45312 4.68047C6.55469 5.70391 6.13281 7.11016 6.29688 8.53203L6.5625 10.782C6.5625 10.8133 6.57031 10.8367 6.57812 10.8602V10.868C6.58594 10.868 6.58594 10.8758 6.58594 10.8758C6.89844 11.743 7.54687 12.5086 8.51562 13.1648L8.52344 13.3758C8.55469 15.3523 9.72656 17.0633 11.4062 17.8836C11.5938 18.4383 11.8594 19.6414 11.5312 20.493C10.2578 19.9773 9.125 18.9461 8.76562 17.1961C8.7479 17.1092 8.70111 17.0309 8.63295 16.9741C8.56479 16.9173 8.47933 16.8854 8.39062 16.8836C3.76562 16.8836 0 20.6492 0 25.2742V28.4539C0 28.6727 0.171875 28.8445 0.382812 28.8445H1.07812V32.3055C1.07812 34.2039 2.625 35.743 4.51562 35.743H9.875C9.96369 36.2086 10.2119 36.6287 10.577 36.931C10.942 37.2333 11.401 37.3989 11.875 37.3992H42.6016C42.7422 37.3992 42.875 37.3133 42.9453 37.1883L49.9609 23.1492C50.0234 23.0398 50.0156 22.8914 49.9453 22.782ZM22.1406 33.5008V28.8445H27.0312L27.0547 29.1727L24.8281 33.5008H22.1406ZM9.28906 13.3602L9.28125 12.9461C9.28125 12.8133 9.21094 12.6961 9.10156 12.6258C8.23438 12.0789 7.66406 11.4695 7.36719 10.7664C7.53906 10.4539 8.03125 9.71172 8.8125 9.43828C9.35938 9.25859 9.95312 9.33672 10.5938 9.67266C10.6875 9.71953 10.7969 9.72734 10.8906 9.69609C10.9398 9.68083 10.9852 9.65561 11.0242 9.622C11.0632 9.5884 11.0948 9.54714 11.1172 9.50078C11.8828 7.95391 12.7812 7.09453 13.7812 6.94609C14.9453 6.77422 16.3828 7.54766 18.0234 9.25078V13.282C18.0234 14.657 17.3828 15.8914 16.3828 16.6805C16.375 16.6961 16.3672 16.7039 16.3594 16.7117C15.6172 17.2977 14.6719 17.6492 13.6562 17.6492C11.2891 17.6492 9.33594 15.7273 9.28906 13.3602ZM0.773438 25.2742C0.773438 21.1727 4.02344 17.8211 8.08594 17.6648C8.58594 19.5633 9.96094 20.7508 11.5156 21.2977C11.5156 21.3055 11.5234 21.3055 11.5234 21.3055C11.5781 21.3211 11.625 21.3445 11.6719 21.3523C12.2969 21.5633 12.9375 21.6648 13.5625 21.6727C14.9531 21.6883 16.4453 21.2664 17.5938 20.3289L17.6016 20.3211C17.6328 20.3055 17.6641 20.282 17.6875 20.2586C18.4297 19.6336 19.0156 18.7898 19.3438 17.7039C23.8359 18.4461 26.3359 21.8445 26.9688 28.0711H21.0156V24.5242C21.0156 24.4227 20.9753 24.3253 20.9035 24.2535C20.8317 24.1817 20.7343 24.1414 20.6328 24.1414C20.5313 24.1414 20.4339 24.1817 20.3621 24.2535C20.2903 24.3253 20.25 24.4227 20.25 24.5242V28.4539C20.25 28.6648 20.4219 28.8367 20.6328 28.8367H21.375V33.493H15.6875V33.1883C15.6875 31.7508 14.5234 30.5867 13.0859 30.5867H6.22656V28.8445H6.79688C7.00781 28.8445 7.17969 28.6727 7.17969 28.4539V24.3367C7.17969 24.2352 7.13936 24.1378 7.06756 24.066C6.99577 23.9942 6.8984 23.9539 6.79688 23.9539C6.69535 23.9539 6.59798 23.9942 6.52619 24.066C6.45439 24.1378 6.41406 24.2352 6.41406 24.3367V28.0711H0.773438V25.2742ZM1.84375 32.3055V28.8445H5.45312V30.9852C5.45312 31.1961 5.625 31.368 5.83594 31.368H13.0781C14.0859 31.368 14.9062 32.1883 14.9062 33.1961V33.5008H10.2109C10.1094 33.5008 10.012 33.5411 9.94025 33.6129C9.86846 33.6847 9.82812 33.7821 9.82812 33.8836V34.9773H4.51562C3.04688 34.9773 1.84375 33.782 1.84375 32.3055ZM42.3594 36.6336H24.0859L25.4062 34.0633L27.7969 29.407L30.9063 23.368H48.9922L42.3594 36.6336Z" fill="#2E3A46"/>
<path d="M25.1719 9.51563C25.1719 14.1328 28.9297 17.8906 33.5469 17.8906C33.8125 17.8906 34.0781 17.875 34.3437 17.8516H34.3828C34.3906 17.8516 34.3984 17.8516 34.4062 17.8438H34.4297C38.6328 17.4063 41.9219 13.8359 41.9219 9.51563C41.9219 8.42188 41.7109 7.375 41.3281 6.41406C41.0469 5.71094 40.6797 5.05469 40.2266 4.46875C39.4472 3.43434 38.4381 2.59524 37.2789 2.01766C36.1196 1.44008 34.842 1.13984 33.5469 1.14063C32.7031 1.14063 31.8828 1.26563 31.1094 1.5H31.1016C29.1328 2.10938 27.4687 3.42188 26.4062 5.14844C26.3984 5.15625 26.3984 5.16406 26.3906 5.17188C25.6172 6.4375 25.1719 7.92188 25.1719 9.51563ZM25.9453 9.51563C25.9453 8.13281 26.3203 6.82813 26.9687 5.71094L27.1875 5.66406C27.3906 5.61719 27.7109 5.72656 27.8281 5.88281C27.9609 6.0625 28.0234 6.25781 28.0234 6.5C28.0234 6.67188 27.9766 6.85938 27.8594 7.09375C27.6641 7.5 27.75 7.97656 28.0781 8.34375C28.4297 8.74219 28.9531 8.89063 29.375 8.74219L29.75 8.64063C30.0703 8.55469 30.4141 8.67188 30.5859 8.92188C31.0625 9.58594 31.1094 10.6641 30.6953 11.3672C30.5 11.6875 30.1328 11.8906 29.7344 11.8906H29.1562C28.6641 11.8906 28.2266 12.2031 28.0703 12.6641L27.9297 13.0547C27.7812 13.4922 27.9062 13.9766 28.2578 14.2969C28.6875 14.6875 28.8906 15.0859 28.8828 15.5156C27.9675 14.8063 27.2268 13.8967 26.7176 12.8566C26.2084 11.8165 25.9442 10.6736 25.9453 9.51563ZM34.8437 17.0156C34.8984 16.7422 35 16.4688 35.1328 16.2188C35.5078 15.5078 35.6562 14.7109 35.5703 13.9141L35.5391 13.6484C35.5313 13.5469 35.5234 13.4453 35.5234 13.3438C35.5234 12 35.8828 11.375 36.7578 11.1641C37.0312 11.0938 37.3359 11.0859 37.6797 11.1328C38.7578 11.2891 39.4453 11.1563 39.8516 10.7344C40.1562 10.4141 40.2578 9.9375 40.1406 9.32031C39.8984 8.25 40.4062 7.54688 40.7891 7.17969C41.0312 7.91406 41.1563 8.70313 41.1563 9.51563C41.1563 13.2656 38.4219 16.3984 34.8437 17.0156ZM33.5469 1.91406C35.7812 1.91406 37.7891 2.88281 39.1797 4.41406L37.8125 4.67969C37.3594 4.76563 36.9531 5.00781 36.6641 5.36719C36.4688 5.60156 36.2109 5.75 35.9531 5.78125C35.4844 5.84375 35 5.82031 34.4922 5.70313C34.2188 5.64063 33.9609 5.44531 33.7969 5.17188L33.4219 4.57031C33.3516 4.44531 33.2969 4.32031 33.2812 4.20313C33.1875 3.66406 32.8438 3.19531 32.3125 2.89063C32.1094 2.77344 31.9375 2.57813 31.8281 2.34375L31.7344 2.13281C32.3125 1.99219 32.9219 1.91406 33.5469 1.91406ZM32.7344 30.875L33.1094 30.9141C33.1563 31.1719 33.2187 31.4141 33.3125 31.6484L33.0234 31.8828C32.9453 31.9453 32.875 32.0625 32.8594 32.1641C32.8516 32.2656 32.8906 32.3984 32.9531 32.4844L33.6641 33.3828C33.7266 33.4688 33.8437 33.5313 33.9531 33.5469C34.0547 33.5547 34.1875 33.5234 34.2656 33.4609L34.5547 33.2266C34.7656 33.375 34.9844 33.5 35.2266 33.6016L35.1797 33.9688C35.1641 34.0703 35.2031 34.2031 35.2656 34.2813C35.3281 34.3672 35.4531 34.4297 35.5547 34.4453L36.6953 34.5781C36.7109 34.5859 36.7266 34.5859 36.7344 34.5859C36.8359 34.5859 36.9453 34.5469 37.0156 34.4922C37.0938 34.4297 37.1563 34.3047 37.1719 34.2109L37.2187 33.8359C37.4687 33.7969 37.7109 33.7266 37.9531 33.6328L38.1797 33.9219C38.3125 34.0938 38.6094 34.125 38.7812 33.9922L39.6797 33.2813C39.7656 33.2188 39.8359 33.1016 39.8438 32.9922C39.8544 32.881 39.8238 32.7698 39.7578 32.6797L39.5234 32.3906C39.6719 32.1797 39.7969 31.9609 39.8984 31.7188L40.2734 31.7656C40.3672 31.7813 40.5078 31.7422 40.5859 31.6797C40.6641 31.6094 40.7266 31.4922 40.7422 31.3906L40.875 30.25C40.8866 30.1387 40.8559 30.0272 40.7891 29.9375C40.7188 29.85 40.6186 29.7915 40.5078 29.7734L40.1328 29.7266C40.0937 29.4766 40.0234 29.2344 39.9297 29L40.2188 28.7656C40.3047 28.7031 40.3672 28.5781 40.3828 28.4766C40.3868 28.3649 40.3538 28.2551 40.2891 28.1641L39.5781 27.2578C39.4453 27.0938 39.1406 27.0625 38.9766 27.1875L38.6875 27.4219C38.4766 27.2734 38.2578 27.1484 38.0234 27.0469L38.0625 26.6797C38.0741 26.5684 38.0434 26.4569 37.9766 26.3672C37.9063 26.2797 37.8061 26.2212 37.6953 26.2031L36.5469 26.0703C36.4375 26.0547 36.3047 26.0938 36.2266 26.1563C36.1484 26.2188 36.0859 26.3359 36.0703 26.4375L36.0312 26.8125C35.7734 26.8516 35.5312 26.9219 35.2969 27.0156L35.0625 26.7266C34.99 26.6416 34.8909 26.5838 34.7812 26.5625C34.6797 26.5547 34.5469 26.5938 34.4609 26.6563L33.5469 27.375C33.3906 27.5078 33.3594 27.8047 33.4844 27.9688L33.7188 28.2578C33.5703 28.4688 33.4453 28.6875 33.3438 28.9219L32.9766 28.8828C32.7734 28.8594 32.5234 29.0469 32.5 29.2578L32.3672 30.4063C32.3438 30.6172 32.5313 30.8516 32.7344 30.875ZM35.3672 30.1719C35.4062 29.8359 35.5703 29.5391 35.8359 29.3281C36.103 29.1234 36.4393 29.0309 36.7734 29.0703C37.4609 29.1484 37.9609 29.7813 37.875 30.4766C37.7969 31.1641 37.1719 31.6641 36.4688 31.5781C35.7812 31.5 35.2812 30.8672 35.3672 30.1719Z" fill="#046FB4"/>
</svg>
