<svg width="50" height="50" viewBox="0 0 50 50" fill="none" xmlns="http://www.w3.org/2000/svg">
<path d="M6.66838 50H43.3326C44.7132 50 45.8324 48.8808 45.8324 47.5002V19.3804L46.1282 19.5762C46.3971 19.7619 46.7011 19.8909 47.0216 19.9554C47.3421 20.0199 47.6723 20.0184 47.9922 19.9511C48.3213 19.883 48.6333 19.7491 48.9094 19.5573C49.1855 19.3656 49.4199 19.12 49.5987 18.8354L49.6037 18.827C50.3359 17.6474 50.0153 16.1011 48.8746 15.3098L26.372 0.420013C25.9681 0.146303 25.4913 0 25.0034 0C24.5154 0 24.0387 0.146303 23.6347 0.420013L1.11954 15.3174C-0.0188453 16.1113 -0.335346 17.6581 0.399607 18.8354C0.576402 19.1198 0.809042 19.3654 1.08346 19.5573C1.35787 19.7493 1.66836 19.8835 1.99615 19.952C2.16265 19.9855 2.33213 20.0023 2.50194 20.0021C2.98755 20.0027 3.46218 19.8576 3.86436 19.5854L4.16848 19.3813V47.5002C4.16848 48.8808 5.28771 50 6.66838 50ZM44.1658 47.5002C44.1658 47.9604 43.7927 48.3335 43.3325 48.3335H6.66838C6.20815 48.3335 5.8351 47.9604 5.8351 47.5002V18.2796L25.0004 5.6138L44.1658 18.2796V47.5002ZM2.93607 18.198C2.84976 18.2577 2.75218 18.2991 2.64929 18.3197C2.54641 18.3404 2.44039 18.3398 2.33774 18.318C2.22942 18.2954 2.12685 18.2509 2.03631 18.1873C1.94577 18.1237 1.86915 18.0423 1.81115 17.948C1.68407 17.7498 1.63752 17.5105 1.68104 17.2791C1.72456 17.0476 1.85485 16.8416 2.04526 16.7031L24.5613 1.80497C24.6908 1.717 24.8438 1.66997 25.0004 1.67C25.1602 1.67066 25.316 1.71914 25.4479 1.80918L47.9489 16.699C48.1408 16.8362 48.273 17.0416 48.3182 17.2731C48.3634 17.5046 48.3184 17.7447 48.1922 17.944C48.1328 18.0394 48.0547 18.1218 47.9626 18.1862C47.8706 18.2506 47.7664 18.2958 47.6564 18.3189C47.5531 18.3395 47.4466 18.3388 47.3435 18.3171C47.2403 18.2953 47.1427 18.2529 47.0564 18.1923L25.4604 3.91977C25.3241 3.83077 25.1649 3.78338 25.0021 3.78338C24.8394 3.78338 24.6801 3.83077 24.5438 3.91977L2.93607 18.198Z" fill="url(#paint0_linear_601_4326)"/>
<path d="M18.0397 15.7243C17.0719 14.7612 15.5077 14.7612 14.5399 15.7243L9.89361 20.3706C8.92999 21.3382 8.92999 22.9028 9.89361 23.8704L17.4339 31.4174L12.7959 36.0562C12.6953 36.156 12.6221 36.28 12.5834 36.4162L10.641 43.2166C10.5729 43.4546 10.561 43.7052 10.6062 43.9486C10.6514 44.192 10.7525 44.4216 10.9015 44.6193C11.0506 44.817 11.2435 44.9773 11.4651 45.0878C11.6866 45.1982 11.9308 45.2557 12.1784 45.2556C12.3269 45.2553 12.4747 45.2346 12.6176 45.194L19.418 43.25C19.5542 43.2112 19.6782 43.1381 19.778 43.0375L24.4177 38.4012L31.9596 45.944C32.9276 46.9067 34.4914 46.9067 35.4594 45.944L40.1057 41.2977C41.0693 40.3301 41.0693 38.7655 40.1057 37.7979L32.5679 30.2509L38.9482 23.8705C39.2549 23.5643 39.4982 23.2006 39.6642 22.8003C39.8302 22.3999 39.9157 21.9708 39.9157 21.5374C39.9157 21.104 39.8302 20.6748 39.6642 20.2745C39.4982 19.8742 39.2549 19.5105 38.9482 19.2042L36.6251 16.8811C36.3194 16.5737 35.9558 16.3301 35.5553 16.1643C35.1548 15.9985 34.7254 15.9139 34.2919 15.9153C33.8585 15.9138 33.4292 15.9984 33.0287 16.164C32.6282 16.3296 32.2645 16.5731 31.9588 16.8803L25.5842 23.2673L18.0397 15.7243ZM15.1299 40.7043C14.6397 40.2188 14.0533 39.8413 13.4084 39.596L13.9267 37.7803L16.8165 39.0186L18.0548 41.9084L16.2391 42.4267C15.9936 41.7815 15.6158 41.1947 15.1299 40.7043ZM18.4388 38.5744L30.8088 26.2044L32.5345 27.9301L19.4738 40.9901L18.4388 38.5744ZM29.0839 22.1222L30.8097 20.3964L35.4394 25.0262L33.7128 26.7511L29.0839 22.1222ZM29.6314 25.0262L17.2606 37.3961L14.844 36.3612L27.9048 23.3004L29.6314 25.0262ZM11.0719 22.6929C10.7559 22.3767 10.7559 21.8643 11.0719 21.548L15.7182 16.9017C16.0344 16.5858 16.5468 16.5858 16.8631 16.9017L18.5971 18.6358L16.8631 20.3699C16.7567 20.4726 16.6796 20.6019 16.6397 20.7443C16.5998 20.8867 16.5985 21.0371 16.636 21.1802C16.6734 21.3233 16.7483 21.4538 16.8528 21.5584C16.9574 21.663 17.0879 21.7379 17.2309 21.7754C17.374 21.8128 17.5245 21.8115 17.6669 21.7716C17.8093 21.7316 17.9386 21.6545 18.0413 21.5481L19.7754 19.814L21.5011 21.5414L20.3479 22.6947C20.2415 22.7974 20.1645 22.9267 20.1245 23.0691C20.0846 23.2115 20.0833 23.3619 20.1208 23.505C20.1582 23.6481 20.2331 23.7786 20.3376 23.8832C20.4422 23.9878 20.5727 24.0627 20.7157 24.1002C20.8588 24.1376 21.0093 24.1363 21.1517 24.0964C21.2942 24.0564 21.4234 23.9793 21.5261 23.8729L22.6794 22.7197L24.4051 24.4454L18.6138 30.2367L11.0719 22.6929ZM12.2768 43.5582L12.9434 41.2084C13.7005 41.5279 14.303 42.1303 14.6225 42.8875L12.2768 43.5582ZM33.1153 33.1573L31.9621 34.3105C31.8557 34.4133 31.7787 34.5425 31.7388 34.6849C31.6988 34.8273 31.6975 34.9778 31.735 35.1209C31.7724 35.2639 31.8473 35.3945 31.9518 35.4991C32.0564 35.6037 32.1869 35.6785 32.3299 35.716C32.473 35.7535 32.6235 35.7522 32.7659 35.7122C32.9084 35.6723 33.0376 35.5952 33.1403 35.4888L34.2936 34.3339L36.0193 36.0596L34.2852 37.7937C34.1789 37.8965 34.1018 38.0257 34.0619 38.1681C34.022 38.3105 34.0207 38.4609 34.0581 38.604C34.0956 38.7471 34.1704 38.8776 34.275 38.9822C34.3795 39.0868 34.51 39.1617 34.6531 39.1992C34.7962 39.2367 34.9467 39.2353 35.0891 39.1954C35.2315 39.1555 35.3607 39.0783 35.4635 38.9719L37.1976 37.2379L38.9307 38.9719C39.2467 39.2881 39.2467 39.8005 38.9307 40.1168L34.2844 44.7632C33.9682 45.0791 33.4558 45.0791 33.1395 44.7632L25.5976 37.2212L31.3889 31.4299L33.1153 33.1573ZM34.2928 17.585C34.507 17.5843 34.7193 17.6261 34.9173 17.7081C35.1152 17.7901 35.2949 17.9105 35.446 18.0625L37.7692 20.3856C38.4052 21.0226 38.4052 22.0543 37.7692 22.6913L36.6167 23.8479L31.987 19.2182L33.1403 18.065C33.2911 17.9127 33.4706 17.7919 33.6684 17.7095C33.8663 17.6271 34.0785 17.5848 34.2928 17.585Z" fill="url(#paint1_linear_601_4326)"/>
<defs>
<linearGradient id="paint0_linear_601_4326" x1="8.3314" y1="6.39353" x2="60.0748" y2="8.71765" gradientUnits="userSpaceOnUse">
<stop stop-color="#0C3E54"/>
<stop offset="1" stop-color="#1B89BA"/>
</linearGradient>
<linearGradient id="paint1_linear_601_4326" x1="14.4443" y1="19.0509" x2="47.2108" y2="20.5225" gradientUnits="userSpaceOnUse">
<stop stop-color="#0C3E54"/>
<stop offset="1" stop-color="#1B89BA"/>
</linearGradient>
</defs>
</svg>
