<?xml version="1.0" encoding="utf-8"?>
<!-- Generator: Adobe Illustrator 28.1.0, SVG Export Plug-In . SVG Version: 6.00 Build 0)  -->
<svg version="1.1" id="Layer_1" xmlns="http://www.w3.org/2000/svg" xmlns:xlink="http://www.w3.org/1999/xlink" x="0px" y="0px"
	 viewBox="0 0 595.28 421.89" style="enable-background:new 0 0 595.28 421.89;" xml:space="preserve">
<style type="text/css">
	.st0{fill:#037AA9;}
	.st1{fill:#272361;}
	.st2{fill:url(#SVGID_1_);}
	.st3{fill:url(#SVGID_00000000943934445596706870000001393973544343382677_);}
	.st4{fill:url(#SVGID_00000039846547413838583950000009732778891322439306_);}
	.st5{fill:url(#SVGID_00000054982638251600135070000010147122625892295071_);}
	.st6{fill:url(#SVGID_00000037650096931896244800000006772262472082628011_);}
	.st7{fill:url(#SVGID_00000007412564784765958730000013800541727029395094_);}
	.st8{fill:url(#SVGID_00000005264408121932951090000014970188622987614352_);}
	.st9{fill:url(#SVGID_00000155135200508315066010000004464361011322916230_);}
	.st10{fill:url(#SVGID_00000047742338131557524340000001778771480475732124_);}
	.st11{fill:url(#SVGID_00000080920877702341919910000017644197457881951390_);}
	.st12{fill:url(#SVGID_00000054266152669196737040000003444869352315040908_);}
	.st13{fill:url(#SVGID_00000028311414941589569090000005580558254667275709_);}
	.st14{fill:url(#SVGID_00000030476565121921060250000008407337960706529676_);}
	.st15{fill:url(#SVGID_00000096061457677647277360000010869336410342072210_);}
	.st16{fill:url(#SVGID_00000118383830428006997430000006657521611737550246_);}
	.st17{fill:url(#SVGID_00000109731767891540294280000018357801762181180069_);}
	.st18{fill:url(#SVGID_00000091736511670720052370000016160690200229910202_);}
	.st19{fill:url(#SVGID_00000097487068610962868650000014749263079806534830_);}
	.st20{fill:url(#SVGID_00000046323710243419974650000002521544781142002840_);}
	.st21{fill:url(#SVGID_00000023249980106188574830000010534097766343279282_);}
	.st22{fill:url(#SVGID_00000163778721141937073280000014208340151455577524_);}
	.st23{fill:url(#SVGID_00000165922626539502373170000017815893851693376676_);}
	.st24{fill:url(#SVGID_00000003811535237513203820000012932129712220841403_);}
	.st25{fill:url(#SVGID_00000080895035838843854020000018220995589511137166_);}
	.st26{fill:url(#SVGID_00000173851222952801141580000013194657854810371210_);}
	.st27{fill:url(#SVGID_00000086677897982865775580000012002269012438815921_);}
	.st28{fill:url(#SVGID_00000027579519244637081990000008850817314059225738_);}
	.st29{fill:url(#SVGID_00000054952242972009706470000008132057323804646566_);}
	.st30{fill:#282561;}
	.st31{fill:#262262;}
	.st32{fill:url(#SVGID_00000147924964959196281080000018375678704208958374_);}
	.st33{fill:url(#SVGID_00000176021966321907498090000015796296083915508158_);}
	.st34{fill:url(#SVGID_00000172420956901544053080000014714699034687397521_);}
	.st35{fill:url(#SVGID_00000049925329902409614300000005463995385557246886_);}
	.st36{fill:url(#SVGID_00000086663368089737779310000013245099608229960623_);}
	.st37{fill:url(#SVGID_00000118398226109721837210000000719157898389139095_);}
	.st38{fill:url(#SVGID_00000129905067157788469310000011237018890057648548_);}
	.st39{fill:url(#SVGID_00000170957776823496120900000002909973452821418880_);}
	.st40{fill:url(#SVGID_00000042708088114152329590000011125046894137653692_);}
	.st41{fill:url(#SVGID_00000021815171860742686590000005540033162809554854_);}
	.st42{fill:url(#SVGID_00000099656195309309354560000011770554477518380940_);}
	.st43{fill:url(#SVGID_00000178205065413173005070000013666182636384870049_);}
	.st44{fill:url(#SVGID_00000029026302121268131290000007206693543416851076_);}
	.st45{fill:url(#SVGID_00000072247128971798690850000016776165970844307852_);}
	.st46{fill:url(#SVGID_00000113337403459351951580000007236582520640695706_);}
	.st47{fill:url(#SVGID_00000021835565683891355740000006234695401550246027_);}
	.st48{fill:url(#SVGID_00000144320411272452972570000009234491715431896222_);}
	.st49{fill:url(#SVGID_00000152968434406200775870000006240511005374017976_);}
	.st50{fill:url(#SVGID_00000072278137262000194200000006930939906618167716_);}
	.st51{fill:url(#SVGID_00000026859276931839803430000017683755389879701925_);}
	.st52{fill:url(#SVGID_00000037658546626757889110000002211214807053317797_);}
	.st53{fill:url(#SVGID_00000113349172492065138450000016932258614708633534_);}
	.st54{fill:url(#SVGID_00000111153260944430803980000012060307120293829024_);}
	.st55{fill:url(#SVGID_00000173883201202507209350000012219123999142811573_);}
	.st56{fill:url(#SVGID_00000140003330989235056270000002231647632640494720_);}
	.st57{fill:url(#SVGID_00000102538111579069431350000004945572843926841742_);}
	.st58{fill:url(#SVGID_00000102507846806578429530000013876619760597013693_);}
	.st59{fill:url(#SVGID_00000065065205822698559790000006301492706605273781_);}
	.st60{font-family:'Constantine';}
	.st61{font-size:24px;}
</style>
<g>
	<g>
		<g>
			<g>
				<path class="st0" d="M334.26-356.47h-30.99v137.11l-0.94,7.51l36.63-26.3l-3.75-4.5c-0.61-0.73-0.94-1.65-0.94-2.61V-356.47z"/>
				<polygon class="st0" points="334.26,-389.34 334.26,-363.98 303.27,-363.98 303.27,-389.34 298.57,-395.91 338.96,-395.91 				
					"/>
			</g>
		</g>
		<g>
			<path class="st1" d="M253.5-356.47h30.99v137.11l0.94,7.51l-36.63-26.3l3.75-4.5c0.61-0.73,0.94-1.65,0.94-2.61V-356.47z"/>
			<polygon class="st1" points="253.5,-389.34 253.5,-363.98 284.49,-363.98 284.49,-389.34 289.18,-395.91 248.8,-395.91 			"/>
		</g>
		<g>
			<linearGradient id="SVGID_1_" gradientUnits="userSpaceOnUse" x1="239.1491" y1="-439.7096" x2="294.8232" y2="-439.7096">
				<stop  offset="0" style="stop-color:#C3972F"/>
				<stop  offset="0.12" style="stop-color:#C3972F"/>
				<stop  offset="0.32" style="stop-color:#E2BC53"/>
				<stop  offset="0.52" style="stop-color:#FCDF99"/>
				<stop  offset="0.71" style="stop-color:#D8B148"/>
				<stop  offset="0.91" style="stop-color:#B88A2D"/>
				<stop  offset="1" style="stop-color:#B88A2D"/>
			</linearGradient>
			<path class="st2" d="M271.23-425.39c-7.95,0-15.85-4.24-22.98-12.36c-5.76-6.57-8.96-13.27-9.1-13.55l2.35-1.11c0,0,0,0,0,0l0,0
				c0.04,0.09,3.22,6.71,8.74,12.99c7.27,8.27,14.96,12.09,22.84,11.35l0.12-0.01c0.03,0,3.42-0.08,7.42-3.24
				c3.76-2.96,8.83-9.31,11.65-22.7l2.55,0.54c-2.42,11.5-6.72,19.69-12.78,24.36c-4.38,3.38-8.17,3.62-8.76,3.64
				C272.6-425.43,271.91-425.39,271.23-425.39z"/>
			
				<linearGradient id="SVGID_00000060018786163621667770000013027697484490997941_" gradientUnits="userSpaceOnUse" x1="293.2232" y1="-439.7096" x2="348.8972" y2="-439.7096">
				<stop  offset="0" style="stop-color:#C3972F"/>
				<stop  offset="0.12" style="stop-color:#C3972F"/>
				<stop  offset="0.32" style="stop-color:#E2BC53"/>
				<stop  offset="0.52" style="stop-color:#FCDF99"/>
				<stop  offset="0.71" style="stop-color:#D8B148"/>
				<stop  offset="0.91" style="stop-color:#B88A2D"/>
				<stop  offset="1" style="stop-color:#B88A2D"/>
			</linearGradient>
			<path style="fill:url(#SVGID_00000060018786163621667770000013027697484490997941_);" d="M316.82-425.39
				c-0.68,0-1.37-0.03-2.05-0.09c-0.59-0.02-4.38-0.26-8.76-3.64c-6.06-4.67-10.36-12.86-12.78-24.36l2.55-0.54
				c2.82,13.39,7.89,19.74,11.65,22.7c4,3.15,7.4,3.24,7.43,3.24l0.11,0.01c7.89,0.74,15.57-3.08,22.84-11.35
				c5.53-6.29,8.71-12.92,8.74-12.99l2.35,1.11c-0.13,0.28-3.34,6.98-9.1,13.55C332.67-429.64,324.77-425.39,316.82-425.39z"/>
			
				<linearGradient id="SVGID_00000160907516907794274570000007633904590309719962_" gradientUnits="userSpaceOnUse" x1="268.6631" y1="-438.9367" x2="319.8794" y2="-438.9367">
				<stop  offset="0" style="stop-color:#C3972F"/>
				<stop  offset="0.12" style="stop-color:#C3972F"/>
				<stop  offset="0.32" style="stop-color:#E2BC53"/>
				<stop  offset="0.52" style="stop-color:#FCDF99"/>
				<stop  offset="0.71" style="stop-color:#D8B148"/>
				<stop  offset="0.91" style="stop-color:#B88A2D"/>
				<stop  offset="1" style="stop-color:#B88A2D"/>
			</linearGradient>
			<path style="fill:url(#SVGID_00000160907516907794274570000007633904590309719962_);" d="M293.29-424.95
				c-1.6,0-4.63-0.35-8.24-2.49c-6.75-4.01-12.26-12.16-16.39-24.24l2.46-0.84c4.82,14.12,10.84,20.15,15.05,22.71
				c4.45,2.72,7.84,2.21,7.87,2.21l0.18-0.02c16.1-0.44,23.08-25.05,23.15-25.3l2.51,0.69c-0.07,0.27-1.87,6.7-5.85,13.28
				c-5.37,8.88-12.16,13.69-19.66,13.93C294.2-424.99,293.82-424.95,293.29-424.95z"/>
			
				<linearGradient id="SVGID_00000058551094131904962720000017121881061605874618_" gradientUnits="userSpaceOnUse" x1="246.7517" y1="-438.6835" x2="269.8061" y2="-438.6835">
				<stop  offset="0" style="stop-color:#C3972F"/>
				<stop  offset="0.12" style="stop-color:#C3972F"/>
				<stop  offset="0.32" style="stop-color:#E2BC53"/>
				<stop  offset="0.52" style="stop-color:#FCDF99"/>
				<stop  offset="0.71" style="stop-color:#D8B148"/>
				<stop  offset="0.91" style="stop-color:#B88A2D"/>
				<stop  offset="1" style="stop-color:#B88A2D"/>
			</linearGradient>
			<path style="fill:url(#SVGID_00000058551094131904962720000017121881061605874618_);" d="M250.63-424.72
				c-1.24,0-2.53-0.1-3.88-0.31l0.39-2.57c5.49,0.84,9.93-0.24,13.2-3.21c7.54-6.84,6.83-21.54,6.83-21.69l2.6-0.14
				c0.04,0.65,0.79,16.07-7.67,23.75C259.05-426.12,255.2-424.72,250.63-424.72z"/>
			
				<linearGradient id="SVGID_00000132074602983679044480000000060815574890177170_" gradientUnits="userSpaceOnUse" x1="318.2301" y1="-438.9106" x2="341.2845" y2="-438.9106">
				<stop  offset="0" style="stop-color:#C3972F"/>
				<stop  offset="0.12" style="stop-color:#C3972F"/>
				<stop  offset="0.32" style="stop-color:#E2BC53"/>
				<stop  offset="0.52" style="stop-color:#FCDF99"/>
				<stop  offset="0.71" style="stop-color:#D8B148"/>
				<stop  offset="0.91" style="stop-color:#B88A2D"/>
				<stop  offset="1" style="stop-color:#B88A2D"/>
			</linearGradient>
			<path style="fill:url(#SVGID_00000132074602983679044480000000060815574890177170_);" d="M337.41-424.95
				c-4.57,0-8.42-1.4-11.48-4.17c-8.46-7.68-7.71-23.1-7.67-23.75l2.6,0.14l-1.3-0.07l1.3,0.07c-0.01,0.15-0.72,14.85,6.83,21.69
				c3.28,2.97,7.72,4.05,13.2,3.21l0.39,2.57C339.94-425.05,338.65-424.95,337.41-424.95z"/>
			
				<linearGradient id="SVGID_00000034055984808727856670000017020571028458348960_" gradientUnits="userSpaceOnUse" x1="259.3191" y1="-402.4981" x2="327.7563" y2="-406.3165">
				<stop  offset="0" style="stop-color:#C3972F"/>
				<stop  offset="0.12" style="stop-color:#C3972F"/>
				<stop  offset="0.32" style="stop-color:#E2BC53"/>
				<stop  offset="0.52" style="stop-color:#FCDF99"/>
				<stop  offset="0.71" style="stop-color:#D8B148"/>
				<stop  offset="0.91" style="stop-color:#B88A2D"/>
				<stop  offset="1" style="stop-color:#B88A2D"/>
			</linearGradient>
			
				<rect x="248.72" y="-405.62" style="fill:url(#SVGID_00000034055984808727856670000017020571028458348960_);" width="90.6" height="2.37"/>
			
				<linearGradient id="SVGID_00000101064333940858320140000001664638254212324493_" gradientUnits="userSpaceOnUse" x1="258.9564" y1="-408.9994" x2="327.3935" y2="-412.8178">
				<stop  offset="0" style="stop-color:#C3972F"/>
				<stop  offset="0.12" style="stop-color:#C3972F"/>
				<stop  offset="0.32" style="stop-color:#E2BC53"/>
				<stop  offset="0.52" style="stop-color:#FCDF99"/>
				<stop  offset="0.71" style="stop-color:#D8B148"/>
				<stop  offset="0.91" style="stop-color:#B88A2D"/>
				<stop  offset="1" style="stop-color:#B88A2D"/>
			</linearGradient>
			<path style="fill:url(#SVGID_00000101064333940858320140000001664638254212324493_);" d="M253.45-411.77
				c-1.7,0-3.08,1.38-3.08,3.08s1.38,3.08,3.08,3.08s3.08-1.38,3.08-3.08S255.15-411.77,253.45-411.77z M253.45-407.37
				c-0.73,0-1.32-0.59-1.32-1.32c0-0.73,0.59-1.32,1.32-1.32s1.32,0.59,1.32,1.32C254.77-407.96,254.18-407.37,253.45-407.37z"/>
			
				<linearGradient id="SVGID_00000098938175919040826580000017091514122783419046_" gradientUnits="userSpaceOnUse" x1="258.9843" y1="-408.498" x2="327.4215" y2="-412.3163">
				<stop  offset="0" style="stop-color:#C3972F"/>
				<stop  offset="0.12" style="stop-color:#C3972F"/>
				<stop  offset="0.32" style="stop-color:#E2BC53"/>
				<stop  offset="0.52" style="stop-color:#FCDF99"/>
				<stop  offset="0.71" style="stop-color:#D8B148"/>
				<stop  offset="0.91" style="stop-color:#B88A2D"/>
				<stop  offset="1" style="stop-color:#B88A2D"/>
			</linearGradient>
			<path style="fill:url(#SVGID_00000098938175919040826580000017091514122783419046_);" d="M262.47-411.77
				c-1.7,0-3.08,1.38-3.08,3.08s1.38,3.08,3.08,3.08s3.08-1.38,3.08-3.08S264.17-411.77,262.47-411.77z M262.47-407.37
				c-0.73,0-1.32-0.59-1.32-1.32c0-0.73,0.59-1.32,1.32-1.32s1.32,0.59,1.32,1.32C263.79-407.96,263.2-407.37,262.47-407.37z"/>
			
				<linearGradient id="SVGID_00000163794403252113854040000010423804255684883100_" gradientUnits="userSpaceOnUse" x1="259.0123" y1="-407.9965" x2="327.4495" y2="-411.8149">
				<stop  offset="0" style="stop-color:#C3972F"/>
				<stop  offset="0.12" style="stop-color:#C3972F"/>
				<stop  offset="0.32" style="stop-color:#E2BC53"/>
				<stop  offset="0.52" style="stop-color:#FCDF99"/>
				<stop  offset="0.71" style="stop-color:#D8B148"/>
				<stop  offset="0.91" style="stop-color:#B88A2D"/>
				<stop  offset="1" style="stop-color:#B88A2D"/>
			</linearGradient>
			<path style="fill:url(#SVGID_00000163794403252113854040000010423804255684883100_);" d="M271.48-411.77
				c-1.7,0-3.08,1.38-3.08,3.08s1.38,3.08,3.08,3.08s3.08-1.38,3.08-3.08S273.18-411.77,271.48-411.77z M271.48-407.37
				c-0.73,0-1.32-0.59-1.32-1.32c0-0.73,0.59-1.32,1.32-1.32c0.73,0,1.32,0.59,1.32,1.32C272.8-407.96,272.21-407.37,271.48-407.37z
				"/>
			
				<linearGradient id="SVGID_00000132064189701481103220000005983794782882768813_" gradientUnits="userSpaceOnUse" x1="259.0403" y1="-407.4951" x2="327.4774" y2="-411.3135">
				<stop  offset="0" style="stop-color:#C3972F"/>
				<stop  offset="0.12" style="stop-color:#C3972F"/>
				<stop  offset="0.32" style="stop-color:#E2BC53"/>
				<stop  offset="0.52" style="stop-color:#FCDF99"/>
				<stop  offset="0.71" style="stop-color:#D8B148"/>
				<stop  offset="0.91" style="stop-color:#B88A2D"/>
				<stop  offset="1" style="stop-color:#B88A2D"/>
			</linearGradient>
			<path style="fill:url(#SVGID_00000132064189701481103220000005983794782882768813_);" d="M280.5-411.77
				c-1.7,0-3.08,1.38-3.08,3.08s1.38,3.08,3.08,3.08s3.08-1.38,3.08-3.08S282.2-411.77,280.5-411.77z M280.5-407.37
				c-0.73,0-1.32-0.59-1.32-1.32c0-0.73,0.59-1.32,1.32-1.32c0.73,0,1.32,0.59,1.32,1.32C281.82-407.96,281.23-407.37,280.5-407.37z
				"/>
			
				<linearGradient id="SVGID_00000011727599188040650210000013881601189944671876_" gradientUnits="userSpaceOnUse" x1="259.0683" y1="-406.9937" x2="327.5054" y2="-410.812">
				<stop  offset="0" style="stop-color:#C3972F"/>
				<stop  offset="0.12" style="stop-color:#C3972F"/>
				<stop  offset="0.32" style="stop-color:#E2BC53"/>
				<stop  offset="0.52" style="stop-color:#FCDF99"/>
				<stop  offset="0.71" style="stop-color:#D8B148"/>
				<stop  offset="0.91" style="stop-color:#B88A2D"/>
				<stop  offset="1" style="stop-color:#B88A2D"/>
			</linearGradient>
			<path style="fill:url(#SVGID_00000011727599188040650210000013881601189944671876_);" d="M289.52-411.77
				c-1.7,0-3.08,1.38-3.08,3.08s1.38,3.08,3.08,3.08s3.08-1.38,3.08-3.08S291.21-411.77,289.52-411.77z M289.52-407.37
				c-0.73,0-1.32-0.59-1.32-1.32c0-0.73,0.59-1.32,1.32-1.32c0.73,0,1.32,0.59,1.32,1.32C290.83-407.96,290.24-407.37,289.52-407.37
				z"/>
			
				<linearGradient id="SVGID_00000072967049625558303430000004942617797369958587_" gradientUnits="userSpaceOnUse" x1="259.0963" y1="-406.4922" x2="327.5334" y2="-410.3106">
				<stop  offset="0" style="stop-color:#C3972F"/>
				<stop  offset="0.12" style="stop-color:#C3972F"/>
				<stop  offset="0.32" style="stop-color:#E2BC53"/>
				<stop  offset="0.52" style="stop-color:#FCDF99"/>
				<stop  offset="0.71" style="stop-color:#D8B148"/>
				<stop  offset="0.91" style="stop-color:#B88A2D"/>
				<stop  offset="1" style="stop-color:#B88A2D"/>
			</linearGradient>
			<path style="fill:url(#SVGID_00000072967049625558303430000004942617797369958587_);" d="M298.53-411.77
				c-1.7,0-3.08,1.38-3.08,3.08s1.38,3.08,3.08,3.08c1.7,0,3.08-1.38,3.08-3.08S300.23-411.77,298.53-411.77z M298.53-407.37
				c-0.73,0-1.32-0.59-1.32-1.32c0-0.73,0.59-1.32,1.32-1.32c0.73,0,1.32,0.59,1.32,1.32C299.85-407.96,299.26-407.37,298.53-407.37
				z"/>
			
				<linearGradient id="SVGID_00000025412276691895070930000012285687603164125074_" gradientUnits="userSpaceOnUse" x1="259.1242" y1="-405.9908" x2="327.5614" y2="-409.8091">
				<stop  offset="0" style="stop-color:#C3972F"/>
				<stop  offset="0.12" style="stop-color:#C3972F"/>
				<stop  offset="0.32" style="stop-color:#E2BC53"/>
				<stop  offset="0.52" style="stop-color:#FCDF99"/>
				<stop  offset="0.71" style="stop-color:#D8B148"/>
				<stop  offset="0.91" style="stop-color:#B88A2D"/>
				<stop  offset="1" style="stop-color:#B88A2D"/>
			</linearGradient>
			<path style="fill:url(#SVGID_00000025412276691895070930000012285687603164125074_);" d="M307.55-411.77
				c-1.7,0-3.08,1.38-3.08,3.08s1.38,3.08,3.08,3.08c1.7,0,3.08-1.38,3.08-3.08S309.24-411.77,307.55-411.77z M307.55-407.37
				c-0.73,0-1.32-0.59-1.32-1.32c0-0.73,0.59-1.32,1.32-1.32c0.73,0,1.32,0.59,1.32,1.32C308.86-407.96,308.27-407.37,307.55-407.37
				z"/>
			
				<linearGradient id="SVGID_00000025403876498730260480000011497860955169560760_" gradientUnits="userSpaceOnUse" x1="259.1522" y1="-405.4893" x2="327.5894" y2="-409.3077">
				<stop  offset="0" style="stop-color:#C3972F"/>
				<stop  offset="0.12" style="stop-color:#C3972F"/>
				<stop  offset="0.32" style="stop-color:#E2BC53"/>
				<stop  offset="0.52" style="stop-color:#FCDF99"/>
				<stop  offset="0.71" style="stop-color:#D8B148"/>
				<stop  offset="0.91" style="stop-color:#B88A2D"/>
				<stop  offset="1" style="stop-color:#B88A2D"/>
			</linearGradient>
			<path style="fill:url(#SVGID_00000025403876498730260480000011497860955169560760_);" d="M316.56-411.77
				c-1.7,0-3.08,1.38-3.08,3.08s1.38,3.08,3.08,3.08s3.08-1.38,3.08-3.08S318.26-411.77,316.56-411.77z M316.56-407.37
				c-0.73,0-1.32-0.59-1.32-1.32c0-0.73,0.59-1.32,1.32-1.32c0.73,0,1.32,0.59,1.32,1.32C317.88-407.96,317.29-407.37,316.56-407.37
				z"/>
			
				<linearGradient id="SVGID_00000012448673065728495110000005465968231397252267_" gradientUnits="userSpaceOnUse" x1="259.1802" y1="-404.9879" x2="327.6173" y2="-408.8062">
				<stop  offset="0" style="stop-color:#C3972F"/>
				<stop  offset="0.12" style="stop-color:#C3972F"/>
				<stop  offset="0.32" style="stop-color:#E2BC53"/>
				<stop  offset="0.52" style="stop-color:#FCDF99"/>
				<stop  offset="0.71" style="stop-color:#D8B148"/>
				<stop  offset="0.91" style="stop-color:#B88A2D"/>
				<stop  offset="1" style="stop-color:#B88A2D"/>
			</linearGradient>
			<path style="fill:url(#SVGID_00000012448673065728495110000005465968231397252267_);" d="M325.58-411.77
				c-1.7,0-3.08,1.38-3.08,3.08s1.38,3.08,3.08,3.08s3.08-1.38,3.08-3.08S327.28-411.77,325.58-411.77z M325.58-407.37
				c-0.73,0-1.32-0.59-1.32-1.32c0-0.73,0.59-1.32,1.32-1.32c0.73,0,1.32,0.59,1.32,1.32C326.9-407.96,326.3-407.37,325.58-407.37z"
				/>
			
				<linearGradient id="SVGID_00000034069473713977750840000017799088439556114077_" gradientUnits="userSpaceOnUse" x1="259.2082" y1="-404.4864" x2="327.6453" y2="-408.3048">
				<stop  offset="0" style="stop-color:#C3972F"/>
				<stop  offset="0.12" style="stop-color:#C3972F"/>
				<stop  offset="0.32" style="stop-color:#E2BC53"/>
				<stop  offset="0.52" style="stop-color:#FCDF99"/>
				<stop  offset="0.71" style="stop-color:#D8B148"/>
				<stop  offset="0.91" style="stop-color:#B88A2D"/>
				<stop  offset="1" style="stop-color:#B88A2D"/>
			</linearGradient>
			<path style="fill:url(#SVGID_00000034069473713977750840000017799088439556114077_);" d="M334.59-411.77
				c-1.7,0-3.08,1.38-3.08,3.08s1.38,3.08,3.08,3.08s3.08-1.38,3.08-3.08S336.29-411.77,334.59-411.77z M334.59-407.37
				c-0.73,0-1.32-0.59-1.32-1.32c0-0.73,0.59-1.32,1.32-1.32c0.73,0,1.32,0.59,1.32,1.32C335.91-407.96,335.32-407.37,334.59-407.37
				z"/>
			
				<linearGradient id="SVGID_00000174559712211083312310000014104725234670277309_" gradientUnits="userSpaceOnUse" x1="258.8389" y1="-411.1056" x2="327.276" y2="-414.924">
				<stop  offset="0" style="stop-color:#C3972F"/>
				<stop  offset="0.12" style="stop-color:#C3972F"/>
				<stop  offset="0.32" style="stop-color:#E2BC53"/>
				<stop  offset="0.52" style="stop-color:#FCDF99"/>
				<stop  offset="0.71" style="stop-color:#D8B148"/>
				<stop  offset="0.91" style="stop-color:#B88A2D"/>
				<stop  offset="1" style="stop-color:#B88A2D"/>
			</linearGradient>
			
				<rect x="248.72" y="-414.37" style="fill:url(#SVGID_00000174559712211083312310000014104725234670277309_);" width="90.6" height="2.6"/>
			
				<linearGradient id="SVGID_00000041974046841874578840000008405664867098049470_" gradientUnits="userSpaceOnUse" x1="338.1409" y1="-436.0891" x2="349.6444" y2="-436.0891">
				<stop  offset="0" style="stop-color:#C3972F"/>
				<stop  offset="0.12" style="stop-color:#C3972F"/>
				<stop  offset="0.32" style="stop-color:#E2BC53"/>
				<stop  offset="0.52" style="stop-color:#FCDF99"/>
				<stop  offset="0.71" style="stop-color:#D8B148"/>
				<stop  offset="0.91" style="stop-color:#B88A2D"/>
				<stop  offset="1" style="stop-color:#B88A2D"/>
			</linearGradient>
			<polygon style="fill:url(#SVGID_00000041974046841874578840000008405664867098049470_);" points="340.5,-420.96 338.14,-420.99 
				347.15,-451.2 349.64,-451.21 			"/>
			
				<linearGradient id="SVGID_00000041988852060193557140000008826148876745488779_" gradientUnits="userSpaceOnUse" x1="312.5928" y1="-435.8884" x2="320.548" y2="-435.8884">
				<stop  offset="0" style="stop-color:#C3972F"/>
				<stop  offset="0.12" style="stop-color:#C3972F"/>
				<stop  offset="0.32" style="stop-color:#E2BC53"/>
				<stop  offset="0.52" style="stop-color:#FCDF99"/>
				<stop  offset="0.71" style="stop-color:#D8B148"/>
				<stop  offset="0.91" style="stop-color:#B88A2D"/>
				<stop  offset="1" style="stop-color:#B88A2D"/>
			</linearGradient>
			<polygon style="fill:url(#SVGID_00000041988852060193557140000008826148876745488779_);" points="314.95,-420.96 312.59,-420.99 
				318.05,-450.8 320.55,-450.81 			"/>
			<g>
				
					<linearGradient id="SVGID_00000046316368812839962830000013922355395661647771_" gradientUnits="userSpaceOnUse" x1="238.7873" y1="-435.8525" x2="250.2908" y2="-435.8525">
					<stop  offset="0" style="stop-color:#C3972F"/>
					<stop  offset="0.12" style="stop-color:#C3972F"/>
					<stop  offset="0.32" style="stop-color:#E2BC53"/>
					<stop  offset="0.52" style="stop-color:#FCDF99"/>
					<stop  offset="0.71" style="stop-color:#D8B148"/>
					<stop  offset="0.91" style="stop-color:#B88A2D"/>
					<stop  offset="1" style="stop-color:#B88A2D"/>
				</linearGradient>
				<polygon style="fill:url(#SVGID_00000046316368812839962830000013922355395661647771_);" points="247.93,-420.73 
					250.29,-420.76 241.28,-450.96 238.79,-450.98 				"/>
				
					<linearGradient id="SVGID_00000003090329874210959920000003698447019950241450_" gradientUnits="userSpaceOnUse" x1="267.8837" y1="-435.6519" x2="275.8389" y2="-435.6519">
					<stop  offset="0" style="stop-color:#C3972F"/>
					<stop  offset="0.12" style="stop-color:#C3972F"/>
					<stop  offset="0.32" style="stop-color:#E2BC53"/>
					<stop  offset="0.52" style="stop-color:#FCDF99"/>
					<stop  offset="0.71" style="stop-color:#D8B148"/>
					<stop  offset="0.91" style="stop-color:#B88A2D"/>
					<stop  offset="1" style="stop-color:#B88A2D"/>
				</linearGradient>
				<polygon style="fill:url(#SVGID_00000003090329874210959920000003698447019950241450_);" points="273.48,-420.73 
					275.84,-420.76 270.38,-450.56 267.88,-450.58 				"/>
			</g>
			
				<linearGradient id="SVGID_00000183228116138009907290000002378916816895698317_" gradientUnits="userSpaceOnUse" x1="292.5767" y1="-435.9098" x2="295.3277" y2="-435.9098">
				<stop  offset="0" style="stop-color:#C3972F"/>
				<stop  offset="0.12" style="stop-color:#C3972F"/>
				<stop  offset="0.32" style="stop-color:#E2BC53"/>
				<stop  offset="0.52" style="stop-color:#FCDF99"/>
				<stop  offset="0.71" style="stop-color:#D8B148"/>
				<stop  offset="0.91" style="stop-color:#B88A2D"/>
				<stop  offset="1" style="stop-color:#B88A2D"/>
			</linearGradient>
			<polygon style="fill:url(#SVGID_00000183228116138009907290000002378916816895698317_);" points="292.97,-420.77 295.33,-420.8 
				295.07,-451.04 292.58,-451.05 			"/>
			
				<radialGradient id="SVGID_00000155141426916476053840000003758466184595718289_" cx="238.9056" cy="-454.2295" r="3.6666" gradientUnits="userSpaceOnUse">
				<stop  offset="0.1625" style="stop-color:#FCDF99"/>
				<stop  offset="1" style="stop-color:#B88A2D"/>
			</radialGradient>
			<circle style="fill:url(#SVGID_00000155141426916476053840000003758466184595718289_);" cx="238.91" cy="-454.23" r="3.67"/>
			
				<radialGradient id="SVGID_00000078750514158843129310000010850852578653786016_" cx="268.4751" cy="-454.2295" r="3.6666" gradientUnits="userSpaceOnUse">
				<stop  offset="0.1625" style="stop-color:#FCDF99"/>
				<stop  offset="1" style="stop-color:#B88A2D"/>
			</radialGradient>
			<circle style="fill:url(#SVGID_00000078750514158843129310000010850852578653786016_);" cx="268.48" cy="-454.23" r="3.67"/>
			
				<radialGradient id="SVGID_00000008831407024399769720000011978545396418046337_" cx="294.0232" cy="-454.2295" r="3.6666" gradientUnits="userSpaceOnUse">
				<stop  offset="0.1625" style="stop-color:#FCDF99"/>
				<stop  offset="1" style="stop-color:#B88A2D"/>
			</radialGradient>
			<circle style="fill:url(#SVGID_00000008831407024399769720000011978545396418046337_);" cx="294.02" cy="-454.23" r="3.67"/>
			
				<radialGradient id="SVGID_00000124143979389449761850000007749147798349959040_" cx="319.5712" cy="-454.2295" r="3.6666" gradientUnits="userSpaceOnUse">
				<stop  offset="0.1625" style="stop-color:#FCDF99"/>
				<stop  offset="1" style="stop-color:#B88A2D"/>
			</radialGradient>
			<circle style="fill:url(#SVGID_00000124143979389449761850000007749147798349959040_);" cx="319.57" cy="-454.23" r="3.67"/>
			
				<radialGradient id="SVGID_00000008140734836086945940000003304636902450096258_" cx="349.3773" cy="-454.2295" r="3.6666" gradientUnits="userSpaceOnUse">
				<stop  offset="0.1625" style="stop-color:#FCDF99"/>
				<stop  offset="1" style="stop-color:#B88A2D"/>
			</radialGradient>
			<circle style="fill:url(#SVGID_00000008140734836086945940000003304636902450096258_);" cx="349.38" cy="-454.23" r="3.67"/>
			
				<linearGradient id="SVGID_00000093174555864317542670000006891816032100147587_" gradientUnits="userSpaceOnUse" x1="247.7764" y1="-419.3374" x2="340.5064" y2="-419.3374">
				<stop  offset="0" style="stop-color:#C3972F"/>
				<stop  offset="0.12" style="stop-color:#C3972F"/>
				<stop  offset="0.32" style="stop-color:#E2BC53"/>
				<stop  offset="0.52" style="stop-color:#FCDF99"/>
				<stop  offset="0.71" style="stop-color:#D8B148"/>
				<stop  offset="0.91" style="stop-color:#B88A2D"/>
				<stop  offset="1" style="stop-color:#B88A2D"/>
			</linearGradient>
			<polygon style="fill:url(#SVGID_00000093174555864317542670000006891816032100147587_);" points="340.51,-420.99 247.78,-420.99 
				248.72,-417.68 339.8,-417.68 			"/>
		</g>
	</g>
	<g>
		<path class="st30" d="M401.24-112.52l2.52-6.35l2.44,6.35H401.24z M404.14-122.5h-0.55l-0.16,0.81l-0.31,0.94l-0.45,1.08
			l-5.08,11.6c-0.24,0.5-0.51,0.86-0.83,1.08l-0.91,0.32h-0.4v0.7h5.08v-0.7h-0.4l-0.5-0.22l-0.23-0.62l0.1-0.51l1.28-3.26h5.91
			l1.28,3.34l0.08,0.43l-0.24,0.62l-0.52,0.22h-0.4v0.7h5.43v-0.7h-0.4l-0.89-0.32c-0.31-0.22-0.57-0.57-0.79-1.08L404.14-122.5z
			 M394.3-105.98v-0.7h-0.53l-0.99-0.35l-0.44-0.83v-12.38l0.47-0.81l0.97-0.35h0.53v-0.73h-5.96v0.73h0.53l0.99,0.35l0.47,0.83
			v12.35l-0.47,0.83l-0.99,0.35h-0.53v0.7H394.3z M373.27-120.86h4.65c0.91,0,1.72,0.16,2.45,0.47c0.73,0.31,1.35,0.77,1.86,1.36
			c0.51,0.59,0.9,1.31,1.17,2.17c0.27,0.85,0.4,1.81,0.4,2.87c0,2.13-0.52,3.8-1.57,5c-1.05,1.2-2.49,1.8-4.31,1.8h-4.65V-120.86z
			 M369.57-122.13v0.73h0.5l0.82,0.34l0.36,0.85v12.32l-0.35,0.87l-0.83,0.36h-0.53v0.7h8.38c1.24,0,2.36-0.18,3.36-0.55
			c1-0.37,1.84-0.9,2.54-1.6c0.7-0.7,1.23-1.55,1.61-2.54c0.38-1,0.57-2.12,0.57-3.38c0-1.24-0.19-2.35-0.58-3.34
			c-0.39-0.99-0.93-1.82-1.64-2.52c-0.7-0.69-1.56-1.23-2.55-1.61c-1-0.39-2.1-0.59-3.31-0.61L369.57-122.13z M361.97-122.13v0.7
			h0.63l0.78,0.32l0.38,0.78v10.33l-12.43-12.51h-0.6l0.15,1.1l0.1,1.12l0.05,1.28v11.19l-0.36,0.82l-0.79,0.34h-0.63v0.7h5.03v-0.7
			h-0.63l-0.78-0.34l-0.38-0.82v-10.39l12.45,12.62h0.55l-0.13-1.16l-0.09-1.14l-0.04-1.25v-11.14l0.38-0.78l0.81-0.32h0.6v-0.7
			L361.97-122.13z M347.13-105.98v-0.7h-0.53l-0.99-0.35l-0.44-0.83v-12.38l0.47-0.81l0.97-0.35h0.53v-0.73h-5.96v0.73h0.53
			l0.99,0.35l0.47,0.83v12.35l-0.47,0.83l-0.99,0.35h-0.53v0.7H347.13z M309.59-114.3v-6.56h1.61l0.98,0.03
			c0.92,0.05,1.65,0.34,2.19,0.86c0.54,0.52,0.81,1.24,0.83,2.15l0.03,0.22l-0.18,1.18c-0.17,0.52-0.38,0.92-0.63,1.2l-0.83,0.62
			l-0.96,0.24l-0.89,0.05l-0.67,0.01H309.59z M305.92-122.13v0.73h0.53l0.83,0.32l0.35,0.81v12.4l-0.35,0.82l-0.83,0.34h-0.55v0.7
			h5.43v-0.7h-0.55l-0.83-0.35l-0.35-0.83v-5.7c0.91,0,1.55,0.17,1.94,0.51l1.03,1.13l1.11,1.67l0.81,1.22l0.5,0.74l0.67,0.79
			l0.92,0.77c0.37,0.23,0.81,0.43,1.31,0.58c0.5,0.15,1.11,0.23,1.81,0.23h0.96v-0.7l-0.94-0.13l-0.77-0.39l-0.68-0.61l-0.68-0.78
			l-0.75-0.94l-0.68-0.91l-0.68-1v0.03l-0.7-0.96l-0.78-0.82c0.5-0.13,0.96-0.33,1.38-0.61l1.09-1.01l0.72-1.32
			c0.17-0.48,0.25-1,0.25-1.53c0-1.38-0.47-2.46-1.41-3.24c-0.94-0.78-2.2-1.19-3.77-1.22L305.92-122.13z M294.3-112.52l2.52-6.35
			l2.44,6.35H294.3z M297.19-122.5h-0.55l-0.16,0.81l-0.31,0.94l-0.45,1.08l-5.08,11.6c-0.24,0.5-0.51,0.86-0.83,1.08l-0.91,0.32
			h-0.4v0.7h5.08v-0.7h-0.4l-0.5-0.22l-0.23-0.62l0.1-0.51l1.28-3.26h5.91l1.28,3.34l0.08,0.43l-0.24,0.62l-0.52,0.22h-0.4v0.7h5.43
			v-0.7h-0.4l-0.89-0.32c-0.31-0.22-0.57-0.57-0.79-1.08L297.19-122.5z M279.23-122.15l-0.78-0.05l-0.84-0.13l-0.77-0.17l-0.55-0.17
			v3.52h0.7v-0.62l0.28-0.78l0.73-0.35h4.23v13.02l-0.39,0.86l-0.84,0.35h-0.5v0.7h5.46v-0.7h-0.5l-0.86-0.35l-0.38-0.83v-13.05h4.2
			l0.74,0.35l0.29,0.78v0.62h0.68v-3.52l-0.55,0.17l-0.77,0.17l-0.84,0.13l-0.78,0.05H279.23z M264.84-112.52l2.52-6.35l2.44,6.35
			H264.84z M267.73-122.5h-0.55l-0.16,0.81l-0.31,0.94l-0.45,1.08l-5.08,11.6c-0.24,0.5-0.51,0.86-0.83,1.08l-0.91,0.32h-0.4v0.7
			h5.08v-0.7h-0.4l-0.5-0.22l-0.23-0.62l0.1-0.51l1.28-3.26h5.91l1.28,3.34l0.08,0.43l-0.24,0.62l-0.52,0.22h-0.4v0.7h5.43v-0.7
			h-0.4l-0.89-0.32c-0.31-0.22-0.57-0.57-0.79-1.08L267.73-122.5z M244-116.96c0.32-0.9,0.75-1.66,1.29-2.3
			c0.54-0.64,1.19-1.13,1.93-1.48c0.74-0.35,1.54-0.52,2.4-0.52c0.85,0,1.65,0.17,2.4,0.52c0.74,0.35,1.39,0.84,1.95,1.48
			c0.55,0.64,0.99,1.4,1.31,2.3c0.32,0.9,0.48,1.88,0.48,2.96c0,1.08-0.16,2.06-0.48,2.96c-0.32,0.9-0.75,1.66-1.31,2.3
			c-0.55,0.64-1.2,1.13-1.95,1.48c-0.74,0.35-1.54,0.52-2.4,0.52c-0.85,0-1.65-0.17-2.4-0.52c-0.74-0.35-1.39-0.84-1.93-1.48
			c-0.54-0.64-0.97-1.4-1.29-2.3c-0.32-0.9-0.48-1.88-0.48-2.96C243.53-115.08,243.69-116.06,244-116.96z M269.72-103.94
			c-0.86,0.43-1.79,0.81-2.79,1.14c-1.01,0.33-2.04,0.5-3.09,0.5c-0.86,0-1.69-0.09-2.52-0.27c-0.82-0.18-1.59-0.42-2.31-0.73
			c-1.31-0.56-2.53-1.06-3.66-1.51c-1.13-0.45-2.12-0.83-2.97-1.13c0.82-0.27,1.58-0.65,2.27-1.16c0.69-0.5,1.28-1.1,1.79-1.79
			c0.5-0.69,0.89-1.47,1.17-2.33c0.28-0.86,0.42-1.79,0.42-2.8c0-1.26-0.22-2.4-0.66-3.44c-0.44-1.04-1.04-1.94-1.8-2.69
			c-0.76-0.75-1.65-1.34-2.67-1.75c-1.02-0.41-2.1-0.62-3.26-0.62c-1.16,0-2.25,0.21-3.26,0.62c-1.02,0.41-1.9,1-2.66,1.75
			c-0.76,0.75-1.35,1.65-1.79,2.69c-0.44,1.04-0.65,2.19-0.65,3.44c0,1.26,0.22,2.4,0.65,3.44c0.44,1.04,1.04,1.93,1.8,2.68
			c0.76,0.74,1.66,1.33,2.68,1.75c1.02,0.42,2.13,0.63,3.32,0.63c0.44,0.09,0.91,0.23,1.41,0.43c0.5,0.2,1.01,0.42,1.53,0.66
			c0.52,0.24,1.04,0.5,1.56,0.77c0.52,0.27,1.02,0.54,1.51,0.81c0.54,0.29,1.05,0.57,1.55,0.83c0.49,0.27,0.97,0.5,1.42,0.7
			c0.8,0.36,1.57,0.62,2.3,0.78c0.73,0.16,1.42,0.24,2.08,0.24c0.97,0,1.86-0.14,2.65-0.43c0.8-0.29,1.49-0.63,2.08-1.04
			c0.59-0.4,1.32-1.01,2.19-1.82L269.72-103.94z M220.05-110.15h-0.7l-0.57,1.16l-0.74,0.91l-1.02,0.61
			c-0.39,0.15-0.87,0.24-1.42,0.26H212v-6.19h4l0.57,0.3l0.19,0.59v0.57h0.68v-4.12h-0.68v0.57l-0.2,0.61l-0.6,0.28h-3.97v-6.19
			h4.86l0.74,0.35l0.29,0.78v0.62h0.68v-3.52l-0.54,0.17l-0.75,0.17l-0.84,0.13l-0.78,0.05h-7.37v0.7h0.55l0.84,0.34l0.34,0.82
			v12.43l-0.35,0.86l-0.83,0.35h-0.55v0.7h10.29L220.05-110.15z M196.28-112.52l2.52-6.35l2.44,6.35H196.28z M199.17-122.5h-0.55
			l-0.16,0.81l-0.31,0.94l-0.45,1.08l-5.08,11.6c-0.24,0.5-0.51,0.86-0.83,1.08l-0.91,0.32h-0.4v0.7h5.08v-0.7h-0.4l-0.5-0.22
			l-0.23-0.62l0.1-0.51l1.28-3.26h5.91l1.28,3.34l0.08,0.43l-0.24,0.62l-0.52,0.22h-0.4v0.7h5.43v-0.7h-0.4l-0.89-0.32
			c-0.31-0.22-0.57-0.57-0.79-1.08L199.17-122.5z M185.74-122.13v0.7h0.58l0.65,0.26l0.3,0.63v8.8c0,1.54-0.42,2.75-1.25,3.63
			c-0.84,0.88-2,1.32-3.49,1.32c-1.34,0-2.39-0.47-3.15-1.41c-0.76-0.94-1.14-2.23-1.14-3.86v-8.48l0.3-0.65l0.65-0.27h0.58v-0.73
			h-5.08v0.73h0.55l0.67,0.27l0.31,0.65v8.82c0,1.9,0.56,3.39,1.69,4.47c1.12,1.08,2.67,1.61,4.63,1.61c0.97,0,1.85-0.14,2.63-0.43
			c0.78-0.29,1.44-0.69,1.99-1.22c0.54-0.53,0.96-1.17,1.26-1.92c0.29-0.75,0.44-1.61,0.44-2.56v-8.82l0.3-0.62l0.65-0.24h0.58
			v-0.73L185.74-122.13z"/>
		<g>
			<polyline class="st31" points="232.48,-125.71 232.48,-101.68 230.94,-101.68 230.94,-125.71 			"/>
			<polyline class="st31" points="331.67,-125.71 331.67,-101.68 330.13,-101.68 330.13,-125.71 			"/>
		</g>
	</g>
	<g>
		<g>
			<path class="st1" d="M41.23-185.63v43.98h-6.21v-43.98H41.23z"/>
			<path class="st1" d="M46.71-141.64v-43.98h7.19c1.61,6.21,6.41,27.92,6.84,30.25h0.07c-0.29-5.41-0.3-11.6-0.3-18.83v-11.42h5.73
				v43.98h-6.92c-1.27-5.25-6.63-29.38-7.03-31.22h-0.06c0.29,5.33,0.27,11.29,0.27,19.2v12.03H46.71z"/>
			<path class="st1" d="M71.68-185.63h15.69v6.3h-9.48v11.57h9.03v6.3h-9.03v19.82h-6.21V-185.63z"/>
			<path class="st1" d="M97-185.63v43.98h-6.21v-43.98H97z"/>
			<path class="st1" d="M102.49-141.64v-43.98h7.19c1.61,6.21,6.41,27.92,6.84,30.25h0.07c-0.29-5.41-0.3-11.6-0.3-18.83v-11.42
				h5.73v43.98h-6.92c-1.27-5.25-6.63-29.38-7.03-31.22h-0.06c0.29,5.33,0.27,11.29,0.27,19.2v12.03H102.49z"/>
			<path class="st1" d="M133.67-185.63v43.98h-6.21v-43.98H133.67z"/>
			<path class="st1" d="M142.9-179.33h-6.47v-6.3h19.19v6.3h-6.51v37.69h-6.21V-179.33z"/>
			<path class="st1" d="M173.34-161.73h-8.85v13.85h10.21l-0.79,6.24h-15.63v-43.98h15.56v6.3h-9.34v11.36h8.85V-161.73z"/>
			<path class="st1" d="M204.04-141.64h-4.84c-0.17-0.77-0.29-2.36-0.34-3.3c-1.12,2.92-3.45,3.94-6.05,3.94
				c-5.93,0-7.84-4.69-7.84-12.14v-20.66c0-7.18,2.56-12.47,9.56-12.47c8.46,0,9.35,6.79,9.35,11.51v1.43h-6.21v-1.76
				c0-2.32-0.31-5-3.15-5c-2.26,0-3.23,1.71-3.23,5.22v22.5c0,3.52,0.93,5.36,3.18,5.36c2.69,0,3.35-2.46,3.35-6.98v-6.42h-3.52
				v-5.83h9.74V-141.64z"/>
			<path class="st1" d="M215.31-161.31v19.67h-6.21v-43.98h8.6c6.13,0,9.75,2.68,9.75,10.6v1.67c0,6.76-2.54,8.48-4.1,9.18
				c2.35,1.2,3.69,3.05,3.69,9.02c0,3.7-0.06,10.85,0.37,13.51h-6c-0.54-2.66-0.42-9.88-0.42-13.08c0-5.36-0.63-6.59-4.24-6.59
				H215.31z M215.31-166.91h1.42c3.29,0,4.5-1.35,4.5-6.14v-1.51c0-3.4-0.64-5.47-4.17-5.47h-1.76V-166.91z"/>
			<path class="st1" d="M250.45-173.95v20.54c0,8.43-3.28,12.41-10.1,12.41c-6.55,0-9.5-4.09-9.5-12.3V-174
				c0-8.42,3.88-12.27,9.89-12.27C246.85-186.27,250.45-182.42,250.45-173.95z M237.18-174.62v22.12c0,3.65,1.21,5.37,3.45,5.37
				c2.41,0,3.49-1.6,3.49-5.47v-22.08c0-3.49-0.98-5.42-3.5-5.42C238.39-180.09,237.18-178.34,237.18-174.62z"/>
			<path class="st1" d="M261.03-185.63v33.46c0,3.21,0.96,5.04,3.37,5.04c2.46,0,3.26-2.05,3.26-5.03v-33.46h6.22v33.32
				c0,6.94-2.87,11.3-9.59,11.3c-6.4,0-9.47-3.78-9.47-11.28v-33.35H261.03z"/>
			<path class="st1" d="M279.11-185.63h8.96c6.4,0,9.66,3.45,9.66,11.23v2.59c0,7.26-2.37,12.08-10.01,12.08h-2.4v18.08h-6.21
				V-185.63z M285.32-165.27h1.7c3.87,0,4.54-2.47,4.54-6.76v-2.16c0-3.2-0.53-5.83-3.98-5.83h-2.25V-165.27z"/>
			<path class="st1" d="M328.12-173.95v20.54c0,8.43-3.28,12.41-10.1,12.41c-6.55,0-9.49-4.09-9.49-12.3V-174
				c0-8.42,3.88-12.27,9.89-12.27C324.52-186.27,328.12-182.42,328.12-173.95z M314.85-174.62v22.12c0,3.65,1.21,5.37,3.45,5.37
				c2.41,0,3.49-1.6,3.49-5.47v-22.08c0-3.49-0.98-5.42-3.5-5.42C316.05-180.09,314.85-178.34,314.85-174.62z"/>
			<path class="st1" d="M332.72-185.63h15.69v6.3h-9.48v11.57h9.03v6.3h-9.03v19.82h-6.21V-185.63z"/>
			<path class="st1" d="M377.2-154.79v1.71c0,5.03-0.77,12.08-9.29,12.08c-7.46,0-9.04-5.09-9.04-11.8v-22.18
				c0-6.79,2.82-11.29,9.15-11.29c7.55,0,9,5.47,9,11.56v1.97h-6.23v-2.77c0-2.92-0.63-4.59-2.79-4.59c-2.12,0-2.81,1.6-2.81,4.61
				v23.26c0,2.87,0.52,5.1,2.88,5.1c2.24,0,2.84-1.94,2.84-5.21v-2.46H377.2z"/>
			<path class="st1" d="M399.58-173.95v20.54c0,8.43-3.28,12.41-10.1,12.41c-6.55,0-9.49-4.09-9.49-12.3V-174
				c0-8.42,3.88-12.27,9.89-12.27C395.98-186.27,399.58-182.42,399.58-173.95z M386.31-174.62v22.12c0,3.65,1.21,5.37,3.45,5.37
				c2.41,0,3.49-1.6,3.49-5.47v-22.08c0-3.49-0.98-5.42-3.5-5.42C387.51-180.09,386.31-178.34,386.31-174.62z"/>
			<path class="st1" d="M424.71-158c0-7.47,0.07-16.78,0.2-21.82h-0.06c-0.93,7.63-3.15,25.45-4.9,38.18h-5.86
				c-1.3-11.42-3.55-30.2-4.47-38.24h-0.12c0.12,5.13,0.31,15.08,0.31,22.64v15.6h-5.63v-43.98h9.25
				c1.57,11.18,3.18,23.71,3.73,29.87h0.06c0.66-6.24,2.84-19.33,4.45-29.87h8.94v43.98h-5.9V-158z"/>
			<path class="st1" d="M436.08-185.63h8.96c6.4,0,9.66,3.45,9.66,11.23v2.59c0,7.26-2.37,12.08-10.01,12.08h-2.4v18.08h-6.21
				V-185.63z M442.29-165.27h1.7c3.87,0,4.54-2.47,4.54-6.76v-2.16c0-3.2-0.53-5.83-3.98-5.83h-2.25V-165.27z"/>
			<path class="st1" d="M463.87-153.41l-1.41,11.77h-6.32l6.49-43.98h8.78l6.74,43.98h-6.49l-1.58-11.77H463.87z M469.33-159.65
				c-0.92-7.47-1.8-14.56-2.26-19.53h-0.23c-0.17,3.62-1.38,13.04-2.19,19.53H469.33z"/>
			<path class="st1" d="M481.36-141.64v-43.98h7.19c1.61,6.21,6.41,27.92,6.84,30.25h0.07c-0.29-5.41-0.3-11.6-0.3-18.83v-11.42
				h5.74v43.98h-6.92c-1.27-5.25-6.63-29.38-7.04-31.22h-0.06c0.29,5.33,0.27,11.29,0.27,19.2v12.03H481.36z"/>
			<path class="st1" d="M512.54-185.63v43.98h-6.21v-43.98H512.54z"/>
			<path class="st1" d="M533.04-161.73h-8.86v13.85h10.21l-0.79,6.24h-15.63v-43.98h15.56v6.3h-9.34v11.36h8.86V-161.73z"/>
			<path class="st1" d="M541.91-154.59v2.72c0,3.27,0.9,5.09,3.26,5.09c2.42,0,3.05-2.5,3.05-5.36c0-4.73-0.93-6.19-5.25-9.92
				c-4.33-3.74-6.65-6.13-6.65-12.64c0-5.8,1.61-11.65,8.88-11.64c7.44,0.01,8.58,5.79,8.58,10.57v2.35h-6.16v-2.17
				c0-3.06-0.47-4.92-2.54-4.92c-2.02,0-2.55,1.92-2.55,4.83c0,3.11,0.54,4.63,4.08,7.46c6.03,4.87,7.88,7.69,7.88,15.05
				c0,6.24-2,12.15-9.52,12.15c-7.45,0-9.27-5.18-9.27-10.98v-2.61H541.91z"/>
		</g>
	</g>
</g>
<g>
	<g>
		<path class="st0" d="M338.15,231.82V129.1v-0.06v-23.37l4.34-6.07h-37.32l4.34,6.07v23.37v0.06v126.64l-0.87,6.94l33.84-24.3
			l-3.47-4.16C338.46,233.55,338.15,232.7,338.15,231.82z"/>
		<path class="st1" d="M292.15,129.1v-0.12v-23.31l4.34-6.07h-37.32l4.34,6.07v23.31v0.12v102.65c0,0.88-0.31,1.73-0.87,2.41
			l-3.47,4.16l33.84,24.3l-0.87-6.94V129.1z"/>
		<g>
			
				<linearGradient id="SVGID_00000119815094983662586720000007164342866460426142_" gradientUnits="userSpaceOnUse" x1="250.2594" y1="59.1289" x2="301.7052" y2="59.1289">
				<stop  offset="0" style="stop-color:#C3972F"/>
				<stop  offset="0.12" style="stop-color:#C3972F"/>
				<stop  offset="0.32" style="stop-color:#E2BC53"/>
				<stop  offset="0.52" style="stop-color:#FCDF99"/>
				<stop  offset="0.71" style="stop-color:#D8B148"/>
				<stop  offset="0.91" style="stop-color:#B88A2D"/>
				<stop  offset="1" style="stop-color:#B88A2D"/>
			</linearGradient>
			<path style="fill:url(#SVGID_00000119815094983662586720000007164342866460426142_);" d="M279.9,72.36
				c-7.35,0-14.65-3.92-21.24-11.42c-5.32-6.07-8.28-12.26-8.41-12.52l2.17-1.03c0,0,0,0,0,0l0,0c0.04,0.08,2.97,6.2,8.08,12
				c6.72,7.64,13.82,11.17,21.11,10.48l0.11-0.01c0.02,0,3.16-0.07,6.86-2.99c3.47-2.74,8.16-8.6,10.76-20.97l2.35,0.5
				c-2.24,10.62-6.21,18.2-11.81,22.51c-4.05,3.12-7.55,3.35-8.1,3.36C281.17,72.33,280.53,72.36,279.9,72.36z"/>
			
				<linearGradient id="SVGID_00000172403275368210905240000001081113374830348970_" gradientUnits="userSpaceOnUse" x1="300.2267" y1="59.1289" x2="351.6724" y2="59.1289">
				<stop  offset="0" style="stop-color:#C3972F"/>
				<stop  offset="0.12" style="stop-color:#C3972F"/>
				<stop  offset="0.32" style="stop-color:#E2BC53"/>
				<stop  offset="0.52" style="stop-color:#FCDF99"/>
				<stop  offset="0.71" style="stop-color:#D8B148"/>
				<stop  offset="0.91" style="stop-color:#B88A2D"/>
				<stop  offset="1" style="stop-color:#B88A2D"/>
			</linearGradient>
			<path style="fill:url(#SVGID_00000172403275368210905240000001081113374830348970_);" d="M322.03,72.36
				c-0.63,0-1.26-0.03-1.9-0.09c-0.55-0.02-4.05-0.24-8.1-3.36c-5.6-4.31-9.57-11.89-11.81-22.51l2.35-0.5
				c2.61,12.37,7.29,18.24,10.76,20.97c3.7,2.92,6.84,2.99,6.87,2.99l0.11,0.01c7.29,0.69,14.39-2.84,21.11-10.48
				c5.11-5.82,8.05-11.94,8.08-12l2.17,1.03c-0.12,0.26-3.08,6.45-8.41,12.52C336.68,68.44,329.38,72.36,322.03,72.36z"/>
			
				<linearGradient id="SVGID_00000054945763654872793250000002843153388780194991_" gradientUnits="userSpaceOnUse" x1="277.532" y1="59.8431" x2="324.8584" y2="59.8431">
				<stop  offset="0" style="stop-color:#C3972F"/>
				<stop  offset="0.12" style="stop-color:#C3972F"/>
				<stop  offset="0.32" style="stop-color:#E2BC53"/>
				<stop  offset="0.52" style="stop-color:#FCDF99"/>
				<stop  offset="0.71" style="stop-color:#D8B148"/>
				<stop  offset="0.91" style="stop-color:#B88A2D"/>
				<stop  offset="1" style="stop-color:#B88A2D"/>
			</linearGradient>
			<path style="fill:url(#SVGID_00000054945763654872793250000002843153388780194991_);" d="M300.28,72.76
				c-1.47,0-4.28-0.32-7.61-2.3c-6.24-3.7-11.33-11.24-15.14-22.39l2.28-0.78c4.46,13.05,10.02,18.62,13.9,20.99
				c4.11,2.52,7.24,2.05,7.27,2.04l0.17-0.02c14.88-0.41,21.33-23.15,21.39-23.38l2.32,0.64c-0.07,0.25-1.73,6.19-5.4,12.27
				c-4.96,8.2-11.24,12.65-18.16,12.87C301.13,72.73,300.78,72.76,300.28,72.76z"/>
			
				<linearGradient id="SVGID_00000005229568799718735410000013008487238074581937_" gradientUnits="userSpaceOnUse" x1="257.2846" y1="60.0771" x2="278.5881" y2="60.0771">
				<stop  offset="0" style="stop-color:#C3972F"/>
				<stop  offset="0.12" style="stop-color:#C3972F"/>
				<stop  offset="0.32" style="stop-color:#E2BC53"/>
				<stop  offset="0.52" style="stop-color:#FCDF99"/>
				<stop  offset="0.71" style="stop-color:#D8B148"/>
				<stop  offset="0.91" style="stop-color:#B88A2D"/>
				<stop  offset="1" style="stop-color:#B88A2D"/>
			</linearGradient>
			<path style="fill:url(#SVGID_00000005229568799718735410000013008487238074581937_);" d="M260.87,72.98
				c-1.15,0-2.34-0.09-3.58-0.29l0.36-2.38c5.07,0.78,9.18-0.22,12.2-2.97c6.97-6.32,6.31-19.9,6.31-20.04l2.4-0.13
				c0.03,0.6,0.73,14.85-7.09,21.95C268.65,71.69,265.09,72.98,260.87,72.98z"/>
			
				<linearGradient id="SVGID_00000170984668793392719060000011839926191248452482_" gradientUnits="userSpaceOnUse" x1="323.3344" y1="59.8673" x2="344.6378" y2="59.8673">
				<stop  offset="0" style="stop-color:#C3972F"/>
				<stop  offset="0.12" style="stop-color:#C3972F"/>
				<stop  offset="0.32" style="stop-color:#E2BC53"/>
				<stop  offset="0.52" style="stop-color:#FCDF99"/>
				<stop  offset="0.71" style="stop-color:#D8B148"/>
				<stop  offset="0.91" style="stop-color:#B88A2D"/>
				<stop  offset="1" style="stop-color:#B88A2D"/>
			</linearGradient>
			<path style="fill:url(#SVGID_00000170984668793392719060000011839926191248452482_);" d="M341.05,72.77
				c-4.22,0-7.78-1.29-10.6-3.85c-7.82-7.1-7.12-21.35-7.09-21.95l2.4,0.13l-1.2-0.07l1.2,0.07c-0.01,0.14-0.66,13.72,6.31,20.04
				c3.03,2.75,7.13,3.74,12.2,2.97l0.36,2.38C343.4,72.67,342.2,72.77,341.05,72.77z"/>
			
				<linearGradient id="SVGID_00000037688615566637193510000015641073355631934906_" gradientUnits="userSpaceOnUse" x1="268.8976" y1="93.5143" x2="332.1371" y2="89.9859">
				<stop  offset="0" style="stop-color:#C3972F"/>
				<stop  offset="0.12" style="stop-color:#C3972F"/>
				<stop  offset="0.32" style="stop-color:#E2BC53"/>
				<stop  offset="0.52" style="stop-color:#FCDF99"/>
				<stop  offset="0.71" style="stop-color:#D8B148"/>
				<stop  offset="0.91" style="stop-color:#B88A2D"/>
				<stop  offset="1" style="stop-color:#B88A2D"/>
			</linearGradient>
			
				<rect x="259.11" y="90.63" style="fill:url(#SVGID_00000037688615566637193510000015641073355631934906_);" width="83.72" height="2.19"/>
			
				<linearGradient id="SVGID_00000061462080777042250900000017125876728438606479_" gradientUnits="userSpaceOnUse" x1="268.5624" y1="87.5067" x2="331.8019" y2="83.9783">
				<stop  offset="0" style="stop-color:#C3972F"/>
				<stop  offset="0.12" style="stop-color:#C3972F"/>
				<stop  offset="0.32" style="stop-color:#E2BC53"/>
				<stop  offset="0.52" style="stop-color:#FCDF99"/>
				<stop  offset="0.71" style="stop-color:#D8B148"/>
				<stop  offset="0.91" style="stop-color:#B88A2D"/>
				<stop  offset="1" style="stop-color:#B88A2D"/>
			</linearGradient>
			<path style="fill:url(#SVGID_00000061462080777042250900000017125876728438606479_);" d="M263.48,84.95
				c-1.57,0-2.84,1.27-2.84,2.84c0,1.57,1.27,2.84,2.84,2.84c1.57,0,2.84-1.27,2.84-2.84C266.32,86.22,265.05,84.95,263.48,84.95z
				 M263.48,89.01c-0.67,0-1.22-0.55-1.22-1.22s0.55-1.22,1.22-1.22s1.22,0.55,1.22,1.22S264.15,89.01,263.48,89.01z"/>
			
				<linearGradient id="SVGID_00000153691692334354637270000003149738322676400007_" gradientUnits="userSpaceOnUse" x1="268.5883" y1="87.9701" x2="331.8277" y2="84.4417">
				<stop  offset="0" style="stop-color:#C3972F"/>
				<stop  offset="0.12" style="stop-color:#C3972F"/>
				<stop  offset="0.32" style="stop-color:#E2BC53"/>
				<stop  offset="0.52" style="stop-color:#FCDF99"/>
				<stop  offset="0.71" style="stop-color:#D8B148"/>
				<stop  offset="0.91" style="stop-color:#B88A2D"/>
				<stop  offset="1" style="stop-color:#B88A2D"/>
			</linearGradient>
			<path style="fill:url(#SVGID_00000153691692334354637270000003149738322676400007_);" d="M271.81,84.95
				c-1.57,0-2.84,1.27-2.84,2.84c0,1.57,1.27,2.84,2.84,2.84c1.57,0,2.84-1.27,2.84-2.84C274.65,86.22,273.38,84.95,271.81,84.95z
				 M271.81,89.01c-0.67,0-1.22-0.55-1.22-1.22s0.55-1.22,1.22-1.22s1.22,0.55,1.22,1.22S272.48,89.01,271.81,89.01z"/>
			
				<linearGradient id="SVGID_00000020362853946864996760000010368455268696276921_" gradientUnits="userSpaceOnUse" x1="268.6141" y1="88.4334" x2="331.8536" y2="84.9051">
				<stop  offset="0" style="stop-color:#C3972F"/>
				<stop  offset="0.12" style="stop-color:#C3972F"/>
				<stop  offset="0.32" style="stop-color:#E2BC53"/>
				<stop  offset="0.52" style="stop-color:#FCDF99"/>
				<stop  offset="0.71" style="stop-color:#D8B148"/>
				<stop  offset="0.91" style="stop-color:#B88A2D"/>
				<stop  offset="1" style="stop-color:#B88A2D"/>
			</linearGradient>
			<path style="fill:url(#SVGID_00000020362853946864996760000010368455268696276921_);" d="M280.14,84.95
				c-1.57,0-2.84,1.27-2.84,2.84c0,1.57,1.27,2.84,2.84,2.84c1.57,0,2.84-1.27,2.84-2.84C282.98,86.22,281.71,84.95,280.14,84.95z
				 M280.14,89.01c-0.67,0-1.22-0.55-1.22-1.22s0.55-1.22,1.22-1.22s1.22,0.55,1.22,1.22S280.81,89.01,280.14,89.01z"/>
			
				<linearGradient id="SVGID_00000107562258389396555090000004422905639657721783_" gradientUnits="userSpaceOnUse" x1="268.64" y1="88.8968" x2="331.8794" y2="85.3684">
				<stop  offset="0" style="stop-color:#C3972F"/>
				<stop  offset="0.12" style="stop-color:#C3972F"/>
				<stop  offset="0.32" style="stop-color:#E2BC53"/>
				<stop  offset="0.52" style="stop-color:#FCDF99"/>
				<stop  offset="0.71" style="stop-color:#D8B148"/>
				<stop  offset="0.91" style="stop-color:#B88A2D"/>
				<stop  offset="1" style="stop-color:#B88A2D"/>
			</linearGradient>
			<path style="fill:url(#SVGID_00000107562258389396555090000004422905639657721783_);" d="M288.47,84.95
				c-1.57,0-2.84,1.27-2.84,2.84c0,1.57,1.27,2.84,2.84,2.84c1.57,0,2.84-1.27,2.84-2.84C291.31,86.22,290.04,84.95,288.47,84.95z
				 M288.47,89.01c-0.67,0-1.22-0.55-1.22-1.22s0.55-1.22,1.22-1.22s1.22,0.55,1.22,1.22S289.14,89.01,288.47,89.01z"/>
			
				<linearGradient id="SVGID_00000076574526941580679810000011688594008260061885_" gradientUnits="userSpaceOnUse" x1="268.6658" y1="89.3602" x2="331.9053" y2="85.8318">
				<stop  offset="0" style="stop-color:#C3972F"/>
				<stop  offset="0.12" style="stop-color:#C3972F"/>
				<stop  offset="0.32" style="stop-color:#E2BC53"/>
				<stop  offset="0.52" style="stop-color:#FCDF99"/>
				<stop  offset="0.71" style="stop-color:#D8B148"/>
				<stop  offset="0.91" style="stop-color:#B88A2D"/>
				<stop  offset="1" style="stop-color:#B88A2D"/>
			</linearGradient>
			<path style="fill:url(#SVGID_00000076574526941580679810000011688594008260061885_);" d="M296.8,84.95
				c-1.57,0-2.84,1.27-2.84,2.84c0,1.57,1.27,2.84,2.84,2.84s2.84-1.27,2.84-2.84C299.64,86.22,298.37,84.95,296.8,84.95z
				 M296.8,89.01c-0.67,0-1.22-0.55-1.22-1.22s0.55-1.22,1.22-1.22s1.22,0.55,1.22,1.22S297.47,89.01,296.8,89.01z"/>
			
				<linearGradient id="SVGID_00000086653132257592880380000006735295445820820924_" gradientUnits="userSpaceOnUse" x1="268.6917" y1="89.8235" x2="331.9311" y2="86.2951">
				<stop  offset="0" style="stop-color:#C3972F"/>
				<stop  offset="0.12" style="stop-color:#C3972F"/>
				<stop  offset="0.32" style="stop-color:#E2BC53"/>
				<stop  offset="0.52" style="stop-color:#FCDF99"/>
				<stop  offset="0.71" style="stop-color:#D8B148"/>
				<stop  offset="0.91" style="stop-color:#B88A2D"/>
				<stop  offset="1" style="stop-color:#B88A2D"/>
			</linearGradient>
			<path style="fill:url(#SVGID_00000086653132257592880380000006735295445820820924_);" d="M305.13,84.95
				c-1.57,0-2.84,1.27-2.84,2.84c0,1.57,1.27,2.84,2.84,2.84c1.57,0,2.84-1.27,2.84-2.84C307.97,86.22,306.7,84.95,305.13,84.95z
				 M305.13,89.01c-0.67,0-1.22-0.55-1.22-1.22s0.55-1.22,1.22-1.22s1.22,0.55,1.22,1.22S305.8,89.01,305.13,89.01z"/>
			
				<linearGradient id="SVGID_00000093888787832862318230000010379412343974801310_" gradientUnits="userSpaceOnUse" x1="268.7175" y1="90.2869" x2="331.957" y2="86.7585">
				<stop  offset="0" style="stop-color:#C3972F"/>
				<stop  offset="0.12" style="stop-color:#C3972F"/>
				<stop  offset="0.32" style="stop-color:#E2BC53"/>
				<stop  offset="0.52" style="stop-color:#FCDF99"/>
				<stop  offset="0.71" style="stop-color:#D8B148"/>
				<stop  offset="0.91" style="stop-color:#B88A2D"/>
				<stop  offset="1" style="stop-color:#B88A2D"/>
			</linearGradient>
			<path style="fill:url(#SVGID_00000093888787832862318230000010379412343974801310_);" d="M313.46,84.95
				c-1.57,0-2.84,1.27-2.84,2.84c0,1.57,1.27,2.84,2.84,2.84c1.57,0,2.84-1.27,2.84-2.84C316.3,86.22,315.03,84.95,313.46,84.95z
				 M313.46,89.01c-0.67,0-1.22-0.55-1.22-1.22s0.55-1.22,1.22-1.22s1.22,0.55,1.22,1.22S314.13,89.01,313.46,89.01z"/>
			
				<linearGradient id="SVGID_00000160902223690007688960000015213145316859596722_" gradientUnits="userSpaceOnUse" x1="268.7433" y1="90.7502" x2="331.9828" y2="87.2219">
				<stop  offset="0" style="stop-color:#C3972F"/>
				<stop  offset="0.12" style="stop-color:#C3972F"/>
				<stop  offset="0.32" style="stop-color:#E2BC53"/>
				<stop  offset="0.52" style="stop-color:#FCDF99"/>
				<stop  offset="0.71" style="stop-color:#D8B148"/>
				<stop  offset="0.91" style="stop-color:#B88A2D"/>
				<stop  offset="1" style="stop-color:#B88A2D"/>
			</linearGradient>
			<path style="fill:url(#SVGID_00000160902223690007688960000015213145316859596722_);" d="M321.79,84.95
				c-1.57,0-2.84,1.27-2.84,2.84c0,1.57,1.27,2.84,2.84,2.84c1.57,0,2.84-1.27,2.84-2.84C324.63,86.22,323.36,84.95,321.79,84.95z
				 M321.79,89.01c-0.67,0-1.22-0.55-1.22-1.22s0.55-1.22,1.22-1.22s1.22,0.55,1.22,1.22S322.47,89.01,321.79,89.01z"/>
			
				<linearGradient id="SVGID_00000147184834043487599230000008249570502519488140_" gradientUnits="userSpaceOnUse" x1="268.7692" y1="91.2136" x2="332.0087" y2="87.6852">
				<stop  offset="0" style="stop-color:#C3972F"/>
				<stop  offset="0.12" style="stop-color:#C3972F"/>
				<stop  offset="0.32" style="stop-color:#E2BC53"/>
				<stop  offset="0.52" style="stop-color:#FCDF99"/>
				<stop  offset="0.71" style="stop-color:#D8B148"/>
				<stop  offset="0.91" style="stop-color:#B88A2D"/>
				<stop  offset="1" style="stop-color:#B88A2D"/>
			</linearGradient>
			<path style="fill:url(#SVGID_00000147184834043487599230000008249570502519488140_);" d="M330.12,84.95
				c-1.57,0-2.84,1.27-2.84,2.84c0,1.57,1.27,2.84,2.84,2.84c1.57,0,2.84-1.27,2.84-2.84C332.97,86.22,331.69,84.95,330.12,84.95z
				 M330.12,89.01c-0.67,0-1.22-0.55-1.22-1.22s0.55-1.22,1.22-1.22s1.22,0.55,1.22,1.22S330.8,89.01,330.12,89.01z"/>
			
				<linearGradient id="SVGID_00000164497122906258623820000017944993026026457728_" gradientUnits="userSpaceOnUse" x1="268.7951" y1="91.677" x2="332.0345" y2="88.1486">
				<stop  offset="0" style="stop-color:#C3972F"/>
				<stop  offset="0.12" style="stop-color:#C3972F"/>
				<stop  offset="0.32" style="stop-color:#E2BC53"/>
				<stop  offset="0.52" style="stop-color:#FCDF99"/>
				<stop  offset="0.71" style="stop-color:#D8B148"/>
				<stop  offset="0.91" style="stop-color:#B88A2D"/>
				<stop  offset="1" style="stop-color:#B88A2D"/>
			</linearGradient>
			<path style="fill:url(#SVGID_00000164497122906258623820000017944993026026457728_);" d="M338.45,84.95
				c-1.57,0-2.84,1.27-2.84,2.84c0,1.57,1.27,2.84,2.84,2.84s2.84-1.27,2.84-2.84C341.3,86.22,340.02,84.95,338.45,84.95z
				 M338.45,89.01c-0.67,0-1.22-0.55-1.22-1.22s0.55-1.22,1.22-1.22s1.22,0.55,1.22,1.22S339.13,89.01,338.45,89.01z"/>
			
				<linearGradient id="SVGID_00000036949274716911623710000008675373731080892860_" gradientUnits="userSpaceOnUse" x1="268.4538" y1="85.5605" x2="331.6933" y2="82.0321">
				<stop  offset="0" style="stop-color:#C3972F"/>
				<stop  offset="0.12" style="stop-color:#C3972F"/>
				<stop  offset="0.32" style="stop-color:#E2BC53"/>
				<stop  offset="0.52" style="stop-color:#FCDF99"/>
				<stop  offset="0.71" style="stop-color:#D8B148"/>
				<stop  offset="0.91" style="stop-color:#B88A2D"/>
				<stop  offset="1" style="stop-color:#B88A2D"/>
			</linearGradient>
			
				<rect x="259.11" y="82.54" style="fill:url(#SVGID_00000036949274716911623710000008675373731080892860_);" width="83.72" height="2.4"/>
			
				<linearGradient id="SVGID_00000019666945842503997650000002074487971310466224_" gradientUnits="userSpaceOnUse" x1="341.733" y1="62.4745" x2="352.3629" y2="62.4745">
				<stop  offset="0" style="stop-color:#C3972F"/>
				<stop  offset="0.12" style="stop-color:#C3972F"/>
				<stop  offset="0.32" style="stop-color:#E2BC53"/>
				<stop  offset="0.52" style="stop-color:#FCDF99"/>
				<stop  offset="0.71" style="stop-color:#D8B148"/>
				<stop  offset="0.91" style="stop-color:#B88A2D"/>
				<stop  offset="1" style="stop-color:#B88A2D"/>
			</linearGradient>
			<polygon style="fill:url(#SVGID_00000019666945842503997650000002074487971310466224_);" points="343.91,76.45 341.73,76.42 
				350.06,48.51 352.36,48.5 			"/>
			
				<linearGradient id="SVGID_00000000915710417914062270000002760393047887640449_" gradientUnits="userSpaceOnUse" x1="318.1252" y1="62.6599" x2="325.4763" y2="62.6599">
				<stop  offset="0" style="stop-color:#C3972F"/>
				<stop  offset="0.12" style="stop-color:#C3972F"/>
				<stop  offset="0.32" style="stop-color:#E2BC53"/>
				<stop  offset="0.52" style="stop-color:#FCDF99"/>
				<stop  offset="0.71" style="stop-color:#D8B148"/>
				<stop  offset="0.91" style="stop-color:#B88A2D"/>
				<stop  offset="1" style="stop-color:#B88A2D"/>
			</linearGradient>
			<polygon style="fill:url(#SVGID_00000000915710417914062270000002760393047887640449_);" points="320.3,76.45 318.13,76.42 
				323.17,48.88 325.48,48.87 			"/>
			<g>
				
					<linearGradient id="SVGID_00000010990798905794077240000000057075899491516052_" gradientUnits="userSpaceOnUse" x1="249.9251" y1="62.6931" x2="260.555" y2="62.6931">
					<stop  offset="0" style="stop-color:#C3972F"/>
					<stop  offset="0.12" style="stop-color:#C3972F"/>
					<stop  offset="0.32" style="stop-color:#E2BC53"/>
					<stop  offset="0.52" style="stop-color:#FCDF99"/>
					<stop  offset="0.71" style="stop-color:#D8B148"/>
					<stop  offset="0.91" style="stop-color:#B88A2D"/>
					<stop  offset="1" style="stop-color:#B88A2D"/>
				</linearGradient>
				<polygon style="fill:url(#SVGID_00000010990798905794077240000000057075899491516052_);" points="258.38,76.67 260.55,76.64 
					252.23,48.73 249.93,48.72 				"/>
				
					<linearGradient id="SVGID_00000028292007939018130610000013622274505463128706_" gradientUnits="userSpaceOnUse" x1="276.8117" y1="62.8785" x2="284.1627" y2="62.8785">
					<stop  offset="0" style="stop-color:#C3972F"/>
					<stop  offset="0.12" style="stop-color:#C3972F"/>
					<stop  offset="0.32" style="stop-color:#E2BC53"/>
					<stop  offset="0.52" style="stop-color:#FCDF99"/>
					<stop  offset="0.71" style="stop-color:#D8B148"/>
					<stop  offset="0.91" style="stop-color:#B88A2D"/>
					<stop  offset="1" style="stop-color:#B88A2D"/>
				</linearGradient>
				<polygon style="fill:url(#SVGID_00000028292007939018130610000013622274505463128706_);" points="281.99,76.67 284.16,76.64 
					279.12,49.1 276.81,49.09 				"/>
			</g>
			
				<linearGradient id="SVGID_00000103972344239815420790000015428622551783289477_" gradientUnits="userSpaceOnUse" x1="299.6293" y1="62.6401" x2="302.1714" y2="62.6401">
				<stop  offset="0" style="stop-color:#C3972F"/>
				<stop  offset="0.12" style="stop-color:#C3972F"/>
				<stop  offset="0.32" style="stop-color:#E2BC53"/>
				<stop  offset="0.52" style="stop-color:#FCDF99"/>
				<stop  offset="0.71" style="stop-color:#D8B148"/>
				<stop  offset="0.91" style="stop-color:#B88A2D"/>
				<stop  offset="1" style="stop-color:#B88A2D"/>
			</linearGradient>
			<polygon style="fill:url(#SVGID_00000103972344239815420790000015428622551783289477_);" points="299.99,76.63 302.17,76.6 
				301.94,48.66 299.63,48.65 			"/>
			
				<radialGradient id="SVGID_00000102531180355351550160000014795348241545678262_" cx="250.0344" cy="45.7118" r="3.3881" gradientUnits="userSpaceOnUse">
				<stop  offset="0.1625" style="stop-color:#FCDF99"/>
				<stop  offset="1" style="stop-color:#B88A2D"/>
			</radialGradient>
			<circle style="fill:url(#SVGID_00000102531180355351550160000014795348241545678262_);" cx="250.03" cy="45.71" r="3.39"/>
			
				<radialGradient id="SVGID_00000037664636898567926950000009377814452570384019_" cx="277.3582" cy="45.7118" r="3.3881" gradientUnits="userSpaceOnUse">
				<stop  offset="0.1625" style="stop-color:#FCDF99"/>
				<stop  offset="1" style="stop-color:#B88A2D"/>
			</radialGradient>
			<circle style="fill:url(#SVGID_00000037664636898567926950000009377814452570384019_);" cx="277.36" cy="45.71" r="3.39"/>
			
				<radialGradient id="SVGID_00000050630981077075219700000007065888311258880414_" cx="300.9659" cy="45.7118" r="3.3881" gradientUnits="userSpaceOnUse">
				<stop  offset="0.1625" style="stop-color:#FCDF99"/>
				<stop  offset="1" style="stop-color:#B88A2D"/>
			</radialGradient>
			<circle style="fill:url(#SVGID_00000050630981077075219700000007065888311258880414_);" cx="300.97" cy="45.71" r="3.39"/>
			
				<radialGradient id="SVGID_00000023272674439787084280000003194975214479385500_" cx="324.5737" cy="45.7118" r="3.3881" gradientUnits="userSpaceOnUse">
				<stop  offset="0.1625" style="stop-color:#FCDF99"/>
				<stop  offset="1" style="stop-color:#B88A2D"/>
			</radialGradient>
			<circle style="fill:url(#SVGID_00000023272674439787084280000003194975214479385500_);" cx="324.57" cy="45.71" r="3.39"/>
			
				<radialGradient id="SVGID_00000152258655952420510330000015441494998469752763_" cx="352.116" cy="45.7118" r="3.3881" gradientUnits="userSpaceOnUse">
				<stop  offset="0.1625" style="stop-color:#FCDF99"/>
				<stop  offset="1" style="stop-color:#B88A2D"/>
			</radialGradient>
			<circle style="fill:url(#SVGID_00000152258655952420510330000015441494998469752763_);" cx="352.12" cy="45.71" r="3.39"/>
			
				<linearGradient id="SVGID_00000098206271745043415960000013470581940308427960_" gradientUnits="userSpaceOnUse" x1="258.2315" y1="77.9539" x2="343.9189" y2="77.9539">
				<stop  offset="0" style="stop-color:#C3972F"/>
				<stop  offset="0.12" style="stop-color:#C3972F"/>
				<stop  offset="0.32" style="stop-color:#E2BC53"/>
				<stop  offset="0.52" style="stop-color:#FCDF99"/>
				<stop  offset="0.71" style="stop-color:#D8B148"/>
				<stop  offset="0.91" style="stop-color:#B88A2D"/>
				<stop  offset="1" style="stop-color:#B88A2D"/>
			</linearGradient>
			<polygon style="fill:url(#SVGID_00000098206271745043415960000013470581940308427960_);" points="343.92,76.42 258.23,76.42 
				259.11,79.48 343.26,79.48 			"/>
		</g>
	</g>
	<g>
		<g>
			<path class="st1" d="M54.75,301.54v42.84H48.7v-42.84H54.75z"/>
			<path class="st1" d="M60.09,344.38v-42.84h7.01c1.56,6.04,6.25,27.19,6.66,29.46h0.07c-0.28-5.27-0.29-11.3-0.29-18.34v-11.13
				h5.59v42.84h-6.74c-1.24-5.12-6.46-28.61-6.85-30.41h-0.06c0.29,5.19,0.26,10.99,0.26,18.7v11.72H60.09z"/>
			<path class="st1" d="M84.41,301.54h15.28v6.13h-9.23v11.27h8.79v6.13h-8.79v19.31h-6.05V301.54z"/>
			<path class="st1" d="M109.08,301.54v42.84h-6.05v-42.84H109.08z"/>
			<path class="st1" d="M114.42,344.38v-42.84h7.01c1.56,6.04,6.25,27.19,6.66,29.46h0.07c-0.28-5.27-0.29-11.3-0.29-18.34v-11.13
				h5.59v42.84h-6.74c-1.24-5.12-6.46-28.61-6.85-30.41h-0.06c0.29,5.19,0.26,10.99,0.26,18.7v11.72H114.42z"/>
			<path class="st1" d="M144.78,301.54v42.84h-6.05v-42.84H144.78z"/>
			<path class="st1" d="M153.78,307.67h-6.3v-6.13h18.68v6.13h-6.34v36.71h-6.05V307.67z"/>
			<path class="st1" d="M183.42,324.81h-8.62v13.49h9.94l-0.77,6.08h-15.22v-42.84h15.15v6.13h-9.1v11.06h8.62V324.81z"/>
			<path class="st1" d="M213.32,344.38h-4.72c-0.16-0.75-0.28-2.3-0.33-3.22c-1.09,2.85-3.36,3.84-5.9,3.84
				c-5.77,0-7.63-4.56-7.63-11.82v-20.12c0-7,2.49-12.15,9.31-12.15c8.24,0,9.11,6.61,9.11,11.21v1.39h-6.05v-1.71
				c0-2.26-0.3-4.87-3.07-4.87c-2.2,0-3.14,1.66-3.14,5.09v21.92c0,3.43,0.91,5.22,3.1,5.22c2.62,0,3.26-2.4,3.26-6.8v-6.25h-3.43
				v-5.68h9.49V344.38z"/>
			<path class="st1" d="M224.3,325.22v19.16h-6.05v-42.84h8.38c5.97,0,9.49,2.61,9.49,10.32v1.63c0,6.58-2.47,8.26-3.99,8.94
				c2.29,1.17,3.6,2.97,3.6,8.79c0,3.61-0.06,10.57,0.36,13.16h-5.84c-0.52-2.59-0.41-9.62-0.41-12.74c0-5.22-0.62-6.42-4.13-6.42
				H224.3z M224.3,319.77h1.39c3.2,0,4.38-1.32,4.38-5.98v-1.47c0-3.31-0.63-5.33-4.06-5.33h-1.71V319.77z"/>
			<path class="st1" d="M258.52,312.91v20.01c0,8.21-3.19,12.09-9.84,12.09c-6.38,0-9.25-3.98-9.25-11.98v-20.17
				c0-8.2,3.78-11.95,9.63-11.95C255.02,300.91,258.52,304.67,258.52,312.91z M245.6,312.26v21.55c0,3.56,1.18,5.23,3.36,5.23
				c2.35,0,3.4-1.56,3.4-5.33v-21.5c0-3.4-0.96-5.28-3.41-5.28C246.77,306.93,245.6,308.63,245.6,312.26z"/>
			<path class="st1" d="M268.83,301.54v32.59c0,3.13,0.94,4.91,3.28,4.91c2.4,0,3.18-2,3.18-4.9v-32.59h6.06V334
				c0,6.76-2.8,11.01-9.34,11.01c-6.24,0-9.22-3.68-9.22-10.99v-32.48H268.83z"/>
			<path class="st1" d="M286.43,301.54h8.73c6.23,0,9.41,3.36,9.41,10.94V315c0,7.07-2.31,11.77-9.75,11.77h-2.34v17.61h-6.05
				V301.54z M292.49,321.37h1.66c3.77,0,4.42-2.41,4.42-6.59v-2.11c0-3.11-0.52-5.68-3.88-5.68h-2.2V321.37z"/>
			<path class="st1" d="M334.16,312.91v20.01c0,8.21-3.19,12.09-9.84,12.09c-6.38,0-9.25-3.98-9.25-11.98v-20.17
				c0-8.2,3.78-11.95,9.63-11.95C330.66,300.91,334.16,304.67,334.16,312.91z M321.24,312.26v21.55c0,3.56,1.18,5.23,3.36,5.23
				c2.35,0,3.4-1.56,3.4-5.33v-21.5c0-3.4-0.96-5.28-3.41-5.28C322.41,306.93,321.24,308.63,321.24,312.26z"/>
			<path class="st1" d="M338.64,301.54h15.28v6.13h-9.23v11.27h8.79v6.13h-8.79v19.31h-6.05V301.54z"/>
			<path class="st1" d="M381.97,331.57v1.67c0,4.9-0.75,11.76-9.04,11.76c-7.27,0-8.81-4.96-8.81-11.5v-21.6c0-6.61,2.75-11,8.91-11
				c7.36,0,8.76,5.33,8.76,11.26v1.92h-6.06v-2.69c0-2.85-0.61-4.47-2.71-4.47c-2.07,0-2.73,1.56-2.73,4.49v22.65
				c0,2.8,0.51,4.97,2.81,4.97c2.18,0,2.76-1.89,2.76-5.08v-2.4H381.97z"/>
			<path class="st1" d="M403.76,312.91v20.01c0,8.21-3.19,12.09-9.84,12.09c-6.38,0-9.25-3.98-9.25-11.98v-20.17
				c0-8.2,3.78-11.95,9.63-11.95C400.25,300.91,403.76,304.67,403.76,312.91z M390.83,312.26v21.55c0,3.56,1.18,5.23,3.36,5.23
				c2.35,0,3.4-1.56,3.4-5.33v-21.5c0-3.4-0.96-5.28-3.41-5.28C392.01,306.93,390.83,308.63,390.83,312.26z"/>
			<path class="st1" d="M428.24,328.44c0-7.28,0.07-16.35,0.19-21.26h-0.06c-0.9,7.43-3.07,24.79-4.77,37.19h-5.71
				c-1.27-11.13-3.46-29.42-4.35-37.25h-0.12c0.12,4.99,0.3,14.69,0.3,22.05v15.2h-5.48v-42.84h9.01c1.53,10.89,3.1,23.09,3.63,29.1
				h0.06c0.64-6.08,2.76-18.82,4.34-29.1h8.71v42.84h-5.75V328.44z"/>
			<path class="st1" d="M439.31,301.54h8.73c6.23,0,9.41,3.36,9.41,10.94V315c0,7.07-2.31,11.77-9.75,11.77h-2.34v17.61h-6.05
				V301.54z M445.36,321.37h1.66c3.77,0,4.42-2.41,4.42-6.59v-2.11c0-3.11-0.52-5.68-3.88-5.68h-2.2V321.37z"/>
			<path class="st1" d="M466.38,332.92L465,344.38h-6.15l6.32-42.84h8.55l6.56,42.84h-6.32l-1.54-11.46H466.38z M471.7,326.84
				c-0.9-7.28-1.75-14.18-2.2-19.03h-0.22c-0.17,3.53-1.35,12.7-2.13,19.03H471.7z"/>
			<path class="st1" d="M483.41,344.38v-42.84h7.01c1.56,6.04,6.25,27.19,6.66,29.46h0.07c-0.28-5.27-0.29-11.3-0.29-18.34v-11.13
				h5.59v42.84h-6.74c-1.24-5.12-6.46-28.61-6.85-30.41h-0.06c0.29,5.19,0.26,10.99,0.26,18.7v11.72H483.41z"/>
			<path class="st1" d="M513.78,301.54v42.84h-6.05v-42.84H513.78z"/>
			<path class="st1" d="M533.74,324.81h-8.62v13.49h9.94l-0.77,6.08h-15.22v-42.84h15.15v6.13h-9.1v11.06h8.62V324.81z"/>
			<path class="st1" d="M542.38,331.77v2.65c0,3.19,0.88,4.96,3.18,4.96c2.36,0,2.97-2.44,2.97-5.22c0-4.6-0.91-6.03-5.12-9.66
				c-4.22-3.64-6.48-5.97-6.48-12.31c0-5.65,1.56-11.34,8.65-11.34c7.24,0.01,8.36,5.64,8.36,10.29v2.29h-6v-2.11
				c0-2.98-0.46-4.79-2.47-4.79c-1.97,0-2.48,1.87-2.48,4.71c0,3.03,0.53,4.51,3.97,7.26c5.87,4.74,7.67,7.49,7.67,14.66
				c0,6.08-1.95,11.84-9.27,11.84c-7.26,0-9.03-5.05-9.03-10.69v-2.54H542.38z"/>
		</g>
	</g>
	<text transform="matrix(1 0 0 1 112.521 380.8775)" class="st30 st60 st61">UAE | QATAR | INDIA | SRILANKA</text>
</g>
</svg>
